v 3.061911 0.367114 6.859648
v 3.443959 0.394057 7.165521
v 3.004525 -0.197898 7.585253
v 3.017672 -0.125793 7.692383
v 2.950453 0.035656 6.783844
v 3.169739 -0.121357 7.711953
v 3.542041 0.171125 7.084586
v 3.525102 0.029230 7.034465
v 2.665690 0.373845 7.402963
v 2.606171 0.255239 7.451348
v 2.583265 0.106775 7.487791
v 2.571277 0.052656 7.413551
v 3.424503 0.385531 7.401297
v 3.437688 0.365690 7.071493
v 3.400116 -0.192273 7.292138
v 3.504310 -0.152391 7.300974
v 3.461106 -0.102781 7.074243
v 2.983887 0.424297 6.903666
v 3.196515 -0.156309 6.919658
v 3.075782 -0.113995 6.862015
v 2.903492 0.481508 7.169980
v 3.282727 0.462900 7.055054
v 3.259491 0.495512 7.338883
v 3.353175 0.454005 7.285580
v 3.518147 -0.091703 7.170113
v 3.577504 0.118985 7.155505
v 3.426635 0.308163 7.532091
v 3.235942 0.096988 7.737424
v 3.022630 0.310112 7.689095
v 2.825285 0.350611 7.608764
v 2.666155 0.245491 7.542657
v 3.335589 0.143534 6.831456
v 3.367628 -0.015214 6.869812
v 3.486053 0.151417 6.963735
v 2.616573 -0.045156 7.320379
v 2.548027 0.209531 7.361951
v 2.712597 -0.063124 6.986979
v 2.681542 0.090028 6.946895
v 2.839193 -0.125327 7.614465
v 3.259370 -0.176822 7.656256
v 3.343963 0.080020 7.691230
v 2.663710 -0.105824 7.405504
v 3.301428 0.426410 7.562405
v 3.199019 0.419126 7.592278
v 3.097823 0.433030 6.904446
v 3.326017 0.426271 7.015898
v 3.301476 -0.217039 7.581246
v 2.902297 0.406397 7.591578
v 3.365081 -0.101864 6.956289
v 2.850127 0.474608 7.048493
v 3.065156 0.469242 6.942606
v 3.008502 0.485018 6.982766
v 2.926514 0.506973 7.093856
v 3.008975 0.468231 7.333148
v 2.840278 0.445568 7.378670
v 3.132303 0.510735 7.105463
v 3.011059 0.502594 7.204157
v 3.179359 0.505249 7.196572
v 3.026708 0.450424 7.516619
v 3.246227 0.499120 7.208158
v 3.099206 0.468976 7.428369
v 3.194568 0.461651 7.479374
v 2.878198 0.450598 6.969349
v 3.121218 0.444388 7.572020
v 3.084790 0.419458 7.621065
v 3.304703 0.457259 7.451683
v 3.358031 0.461488 7.183344
v 3.546422 0.210918 7.244951
v 3.577107 -0.075012 7.277363
v 3.565157 -0.106394 7.358180
v 3.584081 0.089897 7.366105
v 3.594208 -0.009601 7.374392
v 3.545636 0.198293 7.427502
v 3.406973 -0.211944 7.474417
v 3.343956 0.369392 7.586411
v 3.570063 -0.064986 7.464411
v 3.548506 -0.000033 7.539511
v 3.435229 0.201839 7.606835
v 3.424733 -0.171326 7.587087
v 3.477921 -0.026657 7.617754
v 3.489505 -0.094592 7.574142
v 3.408853 -0.115839 7.649108
v 3.516390 0.280160 7.116769
v 3.460389 0.381895 7.256889
v 3.300743 0.343179 7.639898
v 3.363859 -0.036140 7.693875
v 2.965547 -0.016264 7.745240
v 3.090175 0.117511 7.752506
v 2.828937 0.079644 7.730472
v 2.806202 0.194439 7.677183
v 2.972592 0.369681 7.655230
v 2.802827 -0.036664 7.696023
v 2.765921 0.087776 7.696386
v 2.718790 0.006618 7.621959
v 2.687841 0.110363 7.592987
v 2.632843 -0.005321 7.525033
v 2.622930 0.048339 7.516342
v 2.725352 0.356304 7.477069
v 3.242759 0.007892 7.739679
v 3.172856 0.225226 7.721429
v 3.210116 0.346265 7.658337
v 2.719676 -0.081375 7.533384
v 2.891750 -0.117570 7.661794
v 2.786836 -0.188892 7.230456
v 2.911079 -0.165759 7.008277
v 3.022678 -0.147866 6.905934
v 3.034501 -0.206266 6.984007
v 2.869794 -0.218057 7.291309
v 3.122375 -0.194311 6.947171
v 3.027912 -0.196120 7.311150
v 3.099564 -0.203834 7.044023
v 2.993047 -0.196324 7.451527
v 3.149761 -0.231665 7.415872
v 3.161730 -0.203736 7.203851
v 3.225149 -0.195705 7.119014
v 3.301394 -0.156895 7.058560
v 3.349133 -0.178047 7.191962
v 3.265243 -0.236148 7.367264
v 3.180195 -0.216934 7.536087
v 2.864458 -0.168778 7.497019
v 3.067084 0.115314 6.769857
v 3.150219 0.178515 6.771606
v 3.148393 0.048404 6.786625
v 3.208724 0.214476 6.804684
v 3.321500 -0.005768 6.832345
v 3.233082 0.140678 6.783291
v 3.294377 0.312538 6.858664
v 3.356880 0.240245 6.865384
v 3.442031 -0.012091 6.950484
v 3.454787 0.125706 6.914344
v 3.471639 0.256957 7.009007
v 3.032822 0.184652 6.783355
v 2.992862 0.317988 6.815891
v 3.375404 0.369988 6.997709
v 3.165953 -0.074677 6.831744
v 2.536903 0.134800 7.336726
v 2.628635 0.335937 7.381257
v 2.578327 0.254726 7.268006
v 2.548284 0.029073 7.251692
v 2.603252 -0.049932 7.172574
v 2.559339 0.186891 7.214912
v 2.658417 0.367757 7.158722
v 2.729169 -0.139688 7.136516
v 2.558498 0.071652 7.173007
v 2.744597 -0.115790 7.015834
v 2.607713 0.186922 7.091356
v 2.745792 0.213831 6.878449
v 2.762813 0.391383 7.006597
v 2.779757 0.000890 6.865875
v 2.783128 0.136537 6.820107
v 2.889871 0.261273 6.818226
v 2.889463 0.370847 6.874452
v 2.744937 0.441148 7.143149
v 2.911111 0.147158 6.781402
v 2.878415 -0.064073 6.867207
v 2.807339 -0.106683 6.941406
v 2.678408 -0.105830 7.288592
vn -0.3846 0.8797 -0.2796
vn -0.5039 0.8599 -0.0810
vn -0.1899 0.9805 -0.0504
vn -0.2531 0.9472 0.1969
vn -0.1104 0.9766 0.1846
vn 0.1113 0.9864 -0.1210
vn -0.1109 0.9826 0.1492
vn -0.2781 0.9457 0.1681
vn -0.1192 0.9684 0.2190
vn -0.0799 0.9861 0.1458
vn 0.0582 0.9982 0.0170
vn 0.3129 0.8974 -0.3111
vn 0.2091 0.9756 -0.0666
vn 0.1915 0.9741 0.1206
vn 0.4966 0.8642 0.0810
vn 0.0471 0.9654 0.2564
vn 0.3610 0.9033 0.2317
vn -0.3442 0.7916 -0.5048
vn -0.1149 0.7114 -0.6933
vn -0.3561 0.5796 -0.7330
vn -0.6450 0.5944 -0.4803
vn -0.5727 0.7619 0.3025
vn -0.5026 0.7322 0.4596
vn -0.2935 0.8302 0.4739
vn -0.0046 0.7619 0.6476
vn 0.0426 0.9329 0.3576
vn 0.1520 0.8105 0.5656
vn 0.3528 0.8097 0.4690
vn 0.6909 0.6873 0.2242
vn 0.7482 0.6612 0.0550
vn 0.6904 0.7113 -0.1318
vn 0.1400 0.6921 -0.7080
vn 0.4491 0.7714 -0.4508
vn 0.8561 -0.2423 -0.4565
vn 0.9725 0.1281 -0.1947
vn 0.8977 -0.4023 -0.1798
vn 0.9987 -0.0364 0.0346
vn 0.8037 -0.5939 0.0377
vn 0.8886 0.3746 0.2648
vn 0.8886 -0.3580 0.2867
vn 0.7417 0.5115 0.4340
vn 0.6648 0.2983 0.6849
vn 0.7279 -0.4054 0.5530
vn 0.5184 -0.7239 0.4553
vn 0.8617 0.0056 0.5074
vn 0.6503 -0.1110 0.7515
vn 0.3893 -0.9167 0.0898
vn 0.1052 -0.9342 0.3410
vn 0.4226 -0.1311 0.8968
vn 0.4596 0.1597 0.8737
vn 0.3708 0.4747 0.7982
vn 0.5731 -0.7276 -0.3771
vn 0.7198 -0.6102 -0.3310
vn 0.9266 0.3760 -0.0029
vn 0.8796 0.4256 -0.2125
vn 0.6112 0.5669 0.5523
vn 0.1452 0.5401 0.8290
vn 0.2015 -0.0985 0.9745
vn 0.5111 -0.3733 0.7742
vn 0.0883 -0.7513 0.6540
vn 0.0442 -0.5142 0.8566
vn 0.5309 -0.8328 -0.1566
vn 0.2984 -0.9313 -0.2089
vn -0.1189 -0.2563 0.9593
vn -0.2755 -0.7091 0.6490
vn -0.1284 -0.6800 0.7219
vn -0.3109 0.0725 0.9477
vn -0.4857 -0.4440 0.7530
vn -0.0647 0.3993 0.9145
vn 0.0096 0.0962 0.9953
vn -0.6384 0.0957 0.7637
vn -0.7331 -0.2970 0.6118
vn -0.4602 0.3536 0.8144
vn -0.1677 0.5709 0.8037
vn -0.4664 0.5965 0.6532
vn -0.5533 -0.7182 0.4219
vn -0.7274 0.0803 0.6815
vn -0.4384 -0.8011 0.4076
vn -0.7827 -0.3709 0.4997
vn -0.6503 -0.7401 0.1711
vn -0.8027 -0.1287 0.5823
vn -0.6798 0.3898 0.6212
vn -0.8583 -0.0492 0.5107
vn -0.7816 0.4240 0.4574
vn 0.1570 0.3101 0.9376
vn 0.2642 0.1425 0.9539
vn -0.7883 0.5971 0.1486
vn -0.9074 -0.3394 0.2480
vn -0.7787 -0.6263 0.0366
vn -0.1437 -0.9323 0.3320
vn -0.1671 -0.9847 0.0486
vn -0.3234 -0.9222 0.2120
vn -0.1446 -0.9888 0.0365
vn 0.0332 -0.9993 0.0187
vn 0.1142 -0.9924 -0.0447
vn 0.0047 -0.9974 -0.0722
vn 0.3141 -0.9158 -0.2504
vn 0.1838 -0.9723 -0.1447
vn 0.1174 -0.9058 -0.4071
vn 0.2746 -0.7997 -0.5339
vn -0.1201 -0.9927 -0.0107
vn -0.0636 -0.9670 0.2469
vn -0.6601 -0.7504 -0.0357
vn -0.4069 -0.9097 -0.0832
vn -0.1942 -0.7537 -0.6279
vn -0.2962 -0.8984 -0.3244
vn -0.3842 -0.7450 -0.5453
vn -0.1413 -0.9398 -0.3111
vn -0.0572 -0.6424 -0.7642
vn 0.4599 -0.7497 -0.4758
vn 0.2552 -0.9372 -0.2376
vn 0.0730 -0.9937 -0.0849
vn -0.1566 -0.2966 -0.9421
vn 0.1212 -0.5386 -0.8338
vn -0.0434 0.4550 -0.8894
vn 0.0830 0.5438 -0.8351
vn 0.2466 0.3784 -0.8922
vn 0.0986 -0.2401 -0.9657
vn 0.4127 -0.3544 -0.8391
vn 0.1155 0.2019 -0.9726
vn 0.2871 0.0842 -0.9542
vn 0.4798 0.0918 -0.8726
vn 0.5737 -0.4035 -0.7128
vn 0.5538 0.3305 -0.7643
vn 0.7223 0.0414 -0.6903
vn 0.3784 0.4980 -0.7803
vn 0.7560 0.4112 -0.5093
vn 0.8254 0.1826 -0.5342
vn 0.6024 0.5916 -0.5358
vn 0.7031 -0.4114 -0.5800
vn 0.6796 0.6336 -0.3697
vn -0.0396 -0.0281 -0.9988
vn -0.0813 0.1592 -0.9839
vn -0.9344 -0.3554 -0.0267
vn -0.7875 -0.5859 -0.1914
vn -0.9469 0.2957 0.1260
vn -0.8903 0.4380 -0.1245
vn -0.9973 0.0074 0.0724
vn -0.9352 -0.1010 -0.3395
vn -0.9321 0.2768 -0.2335
vn -0.7101 -0.4862 -0.5092
vn -0.4950 -0.7907 -0.3603
vn -0.8219 -0.0600 -0.5665
vn -0.8684 0.2391 -0.4343
vn -0.5430 -0.3973 -0.7398
vn -0.7081 0.2858 -0.6457
vn -0.5528 0.0281 -0.8329
vn -0.2695 -0.6026 -0.7512
vn -0.3184 0.3492 -0.8813
vn -0.1718 0.0752 -0.9823
vn -0.7757 0.5896 -0.2252
vn -0.4984 -0.8488 -0.1763
vn -0.0841 0.9197 -0.3834
vn 0.0574 0.8559 -0.5139
vn 0.4791 0.8748 -0.0722
vn 0.9164 0.2211 -0.3337
vn 0.9821 0.1650 0.0910
vt 0.579282 0.385719
vt 0.439044 0.677604
vt 0.995759 0.550615
vt 0.771408 0.259753
vt 0.301837 0.267499
vt 0.359307 0.262896
vt 0.595126 0.684977
vt 0.368191 0.190574
vt 0.892450 0.491514
vt 0.539459 0.418323
vt 0.831549 0.464744
vt 0.425832 0.108778
vt 0.222637 0.800401
vt 0.161299 0.794210
vt 0.090132 0.783494
vt 0.260537 0.488760
vt 0.067590 0.816197
vt 0.775546 0.148120
vt 0.979003 0.660759
vt 0.988775 0.507153
vt 0.764282 0.305388
vt 0.170858 0.085324
vt 0.179902 0.037687
vt 0.772736 0.485624
vt 0.608819 0.429576
vt 0.085725 0.064793
vt 0.426877 0.720611
vt 0.543877 0.357625
vt 0.010351 0.190545
vt 0.656827 0.545155
vt 0.650083 0.606719
vt 0.519490 0.224640
vt 0.688819 0.299490
vt 0.692537 0.162631
vt 0.734171 0.195001
vt 0.129779 0.036521
vt 0.768539 0.522669
vt 0.862148 0.517237
vt 0.935657 0.717132
vt 0.133072 0.519544
vt 0.838617 0.826802
vt 0.213180 0.594411
vt 0.217491 0.676587
vt 0.158308 0.741969
vt 0.500250 0.522456
vt 0.568784 0.486120
vt 0.894121 0.442526
vt 0.031059 0.841954
vt 0.205634 0.464085
vt 0.139129 0.844641
vt 0.054369 0.423677
vt 0.683338 0.778810
vt 0.114262 0.979593
vt 0.617035 0.813961
vt 0.325165 0.349063
vt 0.335598 0.146279
vt 0.826887 0.791031
vt 0.004010 0.794899
vt 0.235205 0.437140
vt 0.995759 0.752115
vt 0.726243 0.063457
vt 0.680842 0.044505
vt 0.408176 0.669552
vt 0.596223 0.362642
vt 0.707815 0.322305
vt 0.296604 0.125655
vt 0.544274 0.030231
vt 0.250461 0.665059
vt 0.033568 0.112569
vt 0.613152 0.474842
vt 0.488460 0.279537
vt 0.582089 0.340870
vt 0.557637 0.318100
vt 0.525165 0.260231
vt 0.577476 0.153961
vt 0.502820 0.125098
vt 0.620645 0.265183
vt 0.570329 0.212872
vt 0.647497 0.224994
vt 0.596217 0.069440
vt 0.679179 0.223347
vt 0.624281 0.113706
vt 0.671298 0.095022
vt 0.497857 0.319680
vt 0.643040 0.048567
vt 0.629686 0.025013
vt 0.271375 0.607866
vt 0.720751 0.114022
vt 0.730605 0.243002
vt 0.900824 0.566088
vt 0.179660 0.007411
vt 0.766112 0.564917
vt 0.747672 0.602149
vt 0.211451 0.010051
vt 0.835863 0.611632
vt 0.789199 0.609924
vt 0.884205 0.649277
vt 0.249391 0.077773
vt 0.965584 0.755234
vt 0.759982 0.651927
vt 0.264383 0.007849
vt 0.786572 0.691843
vt 0.881999 0.745775
vt 0.713034 0.722326
vt 0.305048 0.069312
vt 0.774110 0.735639
vt 0.744897 0.711304
vt 0.735718 0.755121
vt 0.340250 0.078484
vt 0.942031 0.514158
vt 0.784351 0.218245
vt 0.983720 0.589841
vt 0.732767 0.031722
vt 0.953085 0.784187
vt 0.772325 0.784780
vt 0.371128 0.102994
vt 0.397854 0.292130
vt 0.057152 0.582302
vt 0.128815 0.549785
vt 0.089293 0.623228
vt 0.141794 0.651797
vt 0.581337 0.005994
vt 0.237288 0.621263
vt 0.035496 0.642561
vt 0.373627 0.369255
vt 0.088844 0.652859
vt 0.346734 0.412650
vt 0.050879 0.694083
vt 0.096585 0.714657
vt 0.302175 0.454619
vt 0.041929 0.754836
vt 0.065843 0.761397
vt 0.457955 0.077953
vt 0.216803 0.755178
vt 0.397854 0.161839
vt 0.093026 0.516011
vt 0.797280 0.823197
vt 0.902191 0.833004
vt 0.186519 0.543054
vt 0.691853 0.018168
vt 0.959035 0.804421
vt 0.247612 0.560795
vt 0.014673 0.729089
vt 0.295338 0.409462
vt 0.347154 0.323638
vt 0.145596 0.377743
vt 0.704181 0.673870
vt 0.049377 0.323960
vt 0.005880 0.273737
vt 0.674906 0.626097
vt 0.704350 0.612101
vt 0.032717 0.263796
vt 0.168519 0.335803
vt 0.017672 0.223347
vt 0.685140 0.573779
vt 0.179878 0.261475
vt 0.059602 0.231939
vt 0.242499 0.275460
vt 0.221371 0.199956
vt 0.130652 0.199524
vt 0.093756 0.171363
vt 0.071861 0.138200
vt 0.128298 0.112058
vt 0.198773 0.145798
vt 0.276845 0.184055
vt 0.266872 0.337045
vt 0.543739 0.642332
vt 0.505049 0.612684
vt 0.563803 0.595933
vt 0.483695 0.590373
vt 0.568155 0.508888
vt 0.511720 0.569519
vt 0.432723 0.563744
vt 0.688222 0.401364
vt 0.456959 0.525339
vt 0.719705 0.405618
vt 0.948681 0.417840
vt 0.563022 0.451663
vt 0.498042 0.464638
vt 0.887245 0.422838
vt 0.779964 0.342894
vt 0.940623 0.469573
vt 0.518458 0.667203
vt 0.546579 0.405618
vt 0.466889 0.703085
vt 0.731384 0.336693
vt 0.618910 0.570950
vt 0.105196 0.856921
vt 0.203012 0.818063
vt 0.166392 0.875913
vt 0.185286 0.501448
vt 0.061700 0.887694
vt 0.033990 0.905511
vt 0.704091 0.828920
vt 0.139167 0.472862
vt 0.136086 0.901586
vt 0.409358 0.223865
vt 0.229614 0.901785
vt 0.110573 0.409277
vt 0.656217 0.865730
vt 0.085338 0.917699
vt 0.059995 0.405339
vt 0.704350 0.756805
vt 0.145658 0.939985
vt 0.593417 0.859409
vt 0.179241 0.992847
vt 0.549372 0.801766
vt 0.256122 0.938178
vt 0.477140 0.816543
vt 0.448501 0.299591
vt 0.638239 0.757769
vt 0.574799 0.774849
vt 0.505578 0.742665
vt 0.460913 0.757004
vt 0.500392 0.369609
vt 0.446128 0.231426
vt 0.271375 0.887421
vt 0.550812 0.717982
vt 0.654152 0.703826
vt 0.027886 0.377363
vt 0.687194 0.729980
vt 0.183069 0.432291
s 1
f 50/71/1 153/216/2 53/74/3
f 21/32/4 57/78/5 53/74/3
f 53/74/3 57/78/5 56/77/6
f 54/75/7 57/78/5 21/32/4
f 55/76/8 54/75/7 21/32/4
f 59/80/9 61/82/10 54/75/7
f 58/79/11 22/33/12 56/77/6
f 57/78/5 58/79/11 56/77/6
f 54/75/7 58/79/11 57/78/5
f 58/79/11 60/81/13 22/33/12
f 61/82/10 23/34/14 58/79/11
f 23/34/14 24/35/15 60/81/13
f 62/83/16 66/88/17 23/34/14
f 63/84/18 18/28/19 152/215/20
f 148/210/21 153/216/2 50/71/1
f 153/216/2 9/12/22 21/32/4
f 98/133/23 55/76/8 9/12/22
f 48/67/24 65/86/25 64/85/26
f 64/85/26 65/86/25 44/62/27
f 62/83/16 44/62/27 43/61/28
f 66/88/17 13/18/29 24/35/15
f 24/35/15 84/111/30 2/4/31
f 45/64/32 22/33/12 46/65/33
f 8/11/34 26/38/35 69/92/36
f 69/92/36 72/96/37 70/93/38
f 84/112/30 13/19/29 73/97/39
f 72/96/37 76/100/40 70/93/38
f 27/39/41 78/103/42 73/97/39
f 76/100/40 81/107/43 79/104/44
f 76/100/40 77/102/45 81/107/43
f 80/106/46 81/107/43 77/102/45
f 78/103/42 80/106/46 77/102/45
f 74/98/47 79/105/44 47/66/48
f 80/106/46 86/115/49 81/107/43
f 78/103/42 41/57/50 80/106/46
f 85/114/51 41/57/50 78/103/42
f 17/24/52 8/11/34 25/37/53
f 84/112/30 68/90/54 83/110/55
f 2/3/31 84/112/30 83/110/55
f 13/19/29 75/99/56 27/39/41
f 13/19/29 43/60/28 75/99/56
f 75/99/56 43/60/28 85/114/51
f 44/62/27 101/140/57 85/113/51
f 41/57/50 99/137/58 86/115/49
f 79/105/44 82/109/59 40/56/60
f 86/116/49 6/8/61 82/109/59
f 16/23/62 74/98/47 15/22/63
f 25/36/53 16/23/62 17/26/52
f 87/117/64 103/145/65 4/6/66
f 89/120/67 92/124/68 87/118/64
f 29/42/69 89/120/67 88/119/70
f 89/120/67 93/126/71 92/124/68
f 93/126/71 94/128/72 92/124/68
f 89/120/67 90/121/73 93/126/71
f 89/120/67 91/123/74 90/121/73
f 91/123/74 30/43/75 90/121/73
f 94/128/72 102/143/76 92/124/68
f 93/126/71 90/121/73 95/129/77
f 92/125/68 102/144/76 39/55/78
f 96/130/79 42/59/80 102/144/76
f 94/128/72 97/132/81 96/131/79
f 95/129/77 31/44/82 11/15/83
f 31/44/82 98/134/23 10/14/84
f 99/135/58 87/117/64 6/8/61
f 85/114/51 100/138/85 41/57/50
f 100/139/85 88/119/70 28/40/86
f 91/122/74 65/86/25 48/67/24
f 91/123/74 48/68/24 30/43/75
f 48/67/24 55/76/8 98/133/23
f 98/134/23 9/13/22 10/14/84
f 10/14/84 9/13/22 137/189/87
f 31/44/82 10/14/84 11/15/83
f 97/132/81 12/17/88 96/131/79
f 42/58/80 12/17/88 35/48/89
f 4/6/66 103/145/65 3/5/90
f 6/8/61 4/6/66 40/56/60
f 42/59/80 108/153/91 120/166/92
f 120/166/92 108/153/91 112/158/93
f 110/156/94 112/158/93 108/153/91
f 112/158/93 3/5/90 120/166/92
f 111/157/95 114/160/96 110/156/94
f 116/162/97 115/161/98 111/157/95
f 109/154/99 116/162/97 111/157/95
f 19/29/100 116/162/97 109/154/99
f 112/158/93 114/160/96 113/159/101
f 113/159/101 119/165/102 3/5/90
f 157/222/103 104/146/104 42/59/80
f 106/149/105 105/148/106 156/220/107
f 106/150/105 107/151/108 105/147/106
f 20/31/109 109/155/99 106/150/105
f 116/162/97 49/69/110 117/163/111
f 117/163/111 17/26/52 16/23/62
f 118/164/112 15/22/63 74/98/47
f 118/164/112 47/66/48 119/165/102
f 119/165/102 47/66/48 40/56/60
f 120/166/92 3/5/90 39/55/78
f 102/144/76 120/166/92 39/55/78
f 5/7/113 135/187/114 20/31/109
f 133/185/115 1/2/116 124/170/117
f 123/169/118 125/171/119 135/187/114
f 122/168/120 124/170/117 126/172/121
f 126/172/121 32/45/122 125/171/119
f 126/172/121 124/170/117 32/45/122
f 33/46/123 49/70/110 125/171/119
f 32/45/122 33/46/123 125/171/119
f 128/175/124 130/179/125 32/45/122
f 127/173/126 128/175/124 124/170/117
f 128/177/124 131/182/127 34/47/128
f 128/176/124 134/186/129 131/181/127
f 129/178/130 17/25/52 49/70/110
f 129/178/130 8/10/34 17/25/52
f 129/178/130 130/179/125 8/10/34
f 130/180/125 34/47/128 8/11/34
f 134/186/129 14/21/131 131/181/127
f 121/167/132 123/169/118 5/7/113
f 132/183/133 133/185/115 122/168/120
f 1/2/116 45/63/32 127/173/126
f 127/174/126 46/65/33 134/186/129
f 14/20/131 2/3/31 83/110/55
f 14/20/131 83/110/55 131/182/127
f 157/222/103 139/191/134 140/195/135
f 36/50/136 138/190/137 136/188/138
f 137/189/87 138/190/137 36/50/136
f 139/192/134 144/201/139 140/193/135
f 136/188/138 141/196/140 144/201/139
f 140/195/135 37/51/141 145/202/142
f 144/200/139 38/54/143 140/194/135
f 144/201/139 146/204/144 38/53/143
f 141/196/140 146/204/144 144/201/139
f 38/54/143 149/211/145 37/52/141
f 146/205/144 147/207/146 150/212/147
f 148/208/21 147/206/146 146/204/144
f 38/54/143 150/212/147 149/211/145
f 149/211/145 155/219/148 156/221/107
f 150/212/147 151/213/149 154/218/150
f 147/207/146 152/214/20 151/213/149
f 152/214/20 133/185/115 151/213/149
f 11/15/83 36/50/136 136/188/138
f 11/15/83 10/14/84 36/50/136
f 137/189/87 36/50/136 10/14/84
f 153/216/2 148/210/21 142/197/151
f 152/215/20 18/28/19 133/184/115
f 18/28/19 1/1/116 133/184/115
f 154/218/150 133/185/115 132/183/133
f 156/221/107 155/219/148 106/150/105
f 145/202/142 156/220/107 105/148/106
f 143/199/152 145/202/142 105/148/106
f 53/74/3 63/84/18 50/71/1
f 64/85/26 61/82/10 59/80/9
f 53/74/3 153/216/2 21/32/4
f 9/12/22 55/76/8 21/32/4
f 52/73/153 53/74/3 56/77/6
f 55/76/8 59/80/9 54/75/7
f 51/72/154 52/73/153 56/77/6
f 51/72/154 56/77/6 22/33/12
f 54/75/7 61/82/10 58/79/11
f 22/33/12 60/81/13 67/89/155
f 58/79/11 23/34/14 60/81/13
f 68/90/54 7/9/156 83/110/55
f 67/89/155 24/35/15 2/4/31
f 60/81/13 24/35/15 67/89/155
f 23/34/14 66/88/17 24/35/15
f 61/82/10 62/83/16 23/34/14
f 62/83/16 64/85/26 44/62/27
f 1/2/116 18/27/19 45/63/32
f 63/84/18 148/210/21 50/71/1
f 55/76/8 48/67/24 59/80/9
f 59/80/9 48/67/24 64/85/26
f 44/62/27 65/86/25 101/140/57
f 62/83/16 43/61/28 66/88/17
f 66/88/17 43/61/28 13/18/29
f 24/35/15 13/18/29 84/111/30
f 14/21/131 67/89/155 2/4/31
f 22/33/12 67/89/155 46/65/33
f 46/65/33 67/89/155 14/21/131
f 45/64/32 51/72/154 22/33/12
f 45/64/32 18/28/19 51/72/154
f 25/36/53 69/91/36 16/23/62
f 25/37/53 8/11/34 69/92/36
f 69/92/36 26/38/35 71/95/157
f 68/90/54 84/112/30 73/97/39
f 69/91/36 70/94/38 16/23/62
f 69/92/36 71/95/157 72/96/37
f 26/38/35 68/90/54 71/95/157
f 68/90/54 73/97/39 71/95/157
f 76/100/40 72/96/37 77/102/45
f 71/95/157 73/97/39 77/102/45
f 72/96/37 71/95/157 77/102/45
f 13/19/29 27/39/41 73/97/39
f 16/23/62 70/94/38 74/98/47
f 73/97/39 78/103/42 77/102/45
f 74/98/47 70/94/38 79/105/44
f 70/94/38 76/101/40 79/105/44
f 27/39/41 75/99/56 78/103/42
f 75/99/56 85/114/51 78/103/42
f 79/104/44 81/107/43 82/108/59
f 81/107/43 86/115/49 82/108/59
f 8/11/34 7/9/156 26/38/35
f 4/6/66 119/165/102 40/56/60
f 85/113/51 43/61/28 44/62/27
f 85/114/51 101/141/57 100/138/85
f 80/106/46 41/57/50 86/115/49
f 86/116/49 99/135/58 6/8/61
f 40/56/60 82/109/59 6/8/61
f 47/66/48 79/105/44 40/56/60
f 6/8/61 87/117/64 4/6/66
f 28/40/86 88/119/70 87/118/64
f 100/139/85 29/42/69 88/119/70
f 87/117/64 92/125/68 103/145/65
f 87/118/64 88/119/70 89/120/67
f 103/145/65 92/125/68 39/55/78
f 89/120/67 29/42/69 91/123/74
f 94/128/72 93/126/71 95/129/77
f 102/144/76 94/127/72 96/130/79
f 94/128/72 95/129/77 97/132/81
f 95/129/77 90/121/73 31/44/82
f 90/121/73 30/43/75 31/44/82
f 31/44/82 30/43/75 98/134/23
f 97/132/81 95/129/77 11/15/83
f 99/136/58 28/40/86 87/118/64
f 41/57/50 28/41/86 99/137/58
f 41/57/50 100/138/85 28/41/86
f 101/142/57 29/42/69 100/139/85
f 101/142/57 91/123/74 29/42/69
f 101/142/57 65/87/25 91/123/74
f 30/43/75 48/68/24 98/134/23
f 97/132/81 11/15/83 12/17/88
f 96/131/79 12/17/88 42/58/80
f 103/145/65 39/55/78 3/5/90
f 52/73/153 18/28/19 63/84/18
f 42/59/80 104/146/104 108/153/91
f 104/146/104 105/148/106 108/153/91
f 105/148/106 107/152/108 108/153/91
f 107/152/108 111/157/95 108/153/91
f 106/150/105 109/155/99 107/151/108
f 107/152/108 109/154/99 111/157/95
f 108/153/91 111/157/95 110/156/94
f 112/158/93 110/156/94 114/160/96
f 111/157/95 115/161/98 114/160/96
f 112/158/93 113/159/101 3/5/90
f 113/159/101 118/164/112 119/165/102
f 113/159/101 114/160/96 118/164/112
f 118/164/112 114/160/96 117/163/111
f 114/160/96 115/161/98 117/163/111
f 115/161/98 116/162/97 117/163/111
f 143/199/152 105/148/106 104/146/104
f 20/31/109 19/30/100 109/155/99
f 19/29/100 49/69/110 116/162/97
f 117/163/111 49/69/110 17/26/52
f 15/22/63 117/163/111 16/23/62
f 118/164/112 117/163/111 15/22/63
f 118/164/112 74/98/47 47/66/48
f 156/221/107 37/52/141 149/211/145
f 102/144/76 42/59/80 120/166/92
f 5/7/113 123/169/118 135/187/114
f 121/167/132 122/168/120 123/169/118
f 121/167/132 132/183/133 122/168/120
f 122/168/120 133/185/115 124/170/117
f 123/169/118 122/168/120 126/172/121
f 124/170/117 1/2/116 127/173/126
f 123/169/118 126/172/121 125/171/119
f 32/45/122 124/170/117 128/175/124
f 32/45/122 130/179/125 33/46/123
f 127/174/126 134/186/129 128/176/124
f 33/46/123 129/178/130 49/70/110
f 33/46/123 130/179/125 129/178/130
f 130/180/125 128/177/124 34/47/128
f 5/7/113 132/183/133 121/167/132
f 127/174/126 45/64/32 46/65/33
f 134/186/129 46/65/33 14/21/131
f 131/182/127 83/110/55 7/9/156
f 34/47/128 131/182/127 7/9/156
f 8/11/34 34/47/128 7/9/156
f 135/187/114 125/171/119 19/30/100
f 125/171/119 49/70/110 19/30/100
f 20/31/109 135/187/114 19/30/100
f 35/49/89 12/16/88 139/191/134
f 157/222/103 35/49/89 139/191/134
f 12/17/88 136/188/138 139/192/134
f 139/192/134 136/188/138 144/201/139
f 136/188/138 138/190/137 141/196/140
f 138/190/137 146/204/144 141/196/140
f 137/189/87 142/198/151 138/190/137
f 138/190/137 142/198/151 146/204/144
f 143/199/152 140/195/135 145/202/142
f 142/198/151 148/208/21 146/204/144
f 140/194/135 38/54/143 37/52/141
f 146/205/144 150/212/147 38/54/143
f 147/207/146 151/213/149 150/212/147
f 147/207/146 148/209/21 152/214/20
f 149/211/145 5/7/113 155/219/148
f 150/212/147 5/7/113 149/211/145
f 150/212/147 154/218/150 5/7/113
f 42/59/80 35/49/89 157/222/103
f 12/17/88 11/15/83 136/188/138
f 9/13/22 153/217/2 137/189/87
f 137/189/87 153/217/2 142/198/151
f 148/210/21 63/84/18 152/215/20
f 154/218/150 151/213/149 133/185/115
f 154/218/150 132/183/133 5/7/113
f 155/219/148 5/7/113 20/31/109
f 155/219/148 20/31/109 106/150/105
f 157/222/103 143/199/152 104/146/104
f 157/222/103 140/195/135 143/199/152
f 53/74/3 52/73/153 63/84/18
f 64/85/26 62/83/16 61/82/10
f 68/90/54 26/38/35 7/9/156
f 4/6/66 3/5/90 119/165/102
f 52/73/153 51/72/154 18/28/19
f 156/221/107 145/203/142 37/52/141
