v 0.182270 -0.122384 9.076191
v 0.388006 -0.132353 8.906926
v 0.457959 -0.067574 8.879326
v 0.476255 0.004101 8.923687
v 0.445010 0.275625 8.916834
v -0.022310 -0.088352 9.058954
v -0.127919 0.270732 9.033669
v -0.176189 0.311517 8.680877
v -0.224600 0.146301 8.633140
v -0.233005 0.066341 8.661589
v -0.215884 0.012292 8.674296
v -0.095468 -0.083186 8.608281
v -0.152089 -0.077312 8.674288
v 0.152649 0.352958 8.469297
v 0.215859 0.089237 8.335807
v 0.225533 -0.076774 8.386347
v 0.423303 -0.130662 8.715488
v 0.355451 -0.127386 8.689294
v 0.334080 -0.112973 8.542412
v 0.432400 0.342883 8.717816
v 0.440181 0.334831 8.793452
v 0.306477 -0.052994 9.116841
v 0.254097 -0.052534 9.147230
v 0.293120 0.164060 9.147343
v 0.194445 0.207123 9.150700
v -0.081545 -0.002097 9.111505
v -0.131039 0.186664 9.056415
v -0.143560 -0.026196 9.020365
v -0.218629 0.043891 8.983575
v -0.234028 0.226462 8.834582
v -0.172985 0.163439 8.533562
v -0.184798 0.205987 8.545556
v -0.078220 0.171968 8.394231
v 0.281355 -0.037668 8.379788
v 0.468385 0.128183 8.483543
v 0.398855 -0.121945 8.636981
v 0.507306 0.144011 8.600537
v 0.026813 -0.133357 9.009275
v -0.076671 -0.135616 8.834644
v -0.081970 -0.125107 8.705461
v 0.088539 -0.137647 8.968266
v 0.012669 -0.137752 8.811485
v 0.335888 -0.145131 8.847098
v 0.270334 -0.103091 8.708483
v 0.199723 0.361357 8.999415
v 0.160096 0.434156 8.645666
v 0.256291 -0.126238 9.028584
v 0.519418 0.120844 8.909264
v 0.523021 0.166291 8.813621
v 0.472858 0.279396 8.869861
v 0.228133 0.298209 9.067705
v 0.074669 0.164093 9.154301
v -0.042144 0.171044 9.122172
v 0.059663 0.038498 9.186943
v 0.061591 -0.018258 9.156748
v -0.189574 0.305373 8.848125
v -0.191524 0.276413 8.650395
v 0.011115 -0.097325 8.584255
v -0.137753 0.284358 8.526377
v -0.037254 0.348926 8.521826
v 0.229614 0.211358 8.356684
v 0.160464 0.015774 8.343960
v 0.226676 -0.122446 8.465898
v 0.361660 0.372858 8.605725
v 0.497398 0.168043 8.930439
v 0.465301 0.166481 9.006046
v 0.486124 0.115648 9.005268
v 0.324040 0.095568 9.168475
v 0.381436 0.006143 9.107587
v 0.380132 0.176458 9.077950
v 0.162849 -0.077049 9.141377
v 0.288056 0.031415 9.184719
v 0.177264 0.033573 9.199275
v 0.488225 0.240765 8.850822
v 0.100444 -0.072409 9.122602
v -0.072485 0.058134 9.124182
v -0.177193 0.041602 9.037572
v -0.201033 0.119831 9.032652
v -0.254809 0.109997 8.937395
v -0.242499 0.210697 8.932304
v -0.245404 0.062613 8.913462
v -0.247141 0.179319 8.861806
v -0.227595 0.013600 8.804517
v -0.266619 0.086373 8.754404
v -0.246373 0.042364 8.706840
v -0.253336 0.127460 8.756064
v -0.258701 0.216218 8.779137
v -0.048001 0.222387 9.086476
v -0.137750 0.287168 8.969844
v -0.236088 0.196727 8.689791
v -0.182131 -0.067684 8.736599
v -0.154818 -0.071697 8.856652
v 0.030018 -0.074335 9.101464
v -0.187580 -0.012344 8.594190
v -0.119752 0.035532 8.486006
v -0.020062 0.067006 8.389051
v -0.031686 -0.002730 8.430646
v 0.056909 0.045024 8.346972
v 0.077846 -0.035337 8.375997
v 0.031338 0.141241 8.349771
v 0.138513 -0.053280 8.366215
v -0.174714 0.037511 8.545388
v -0.207901 0.229436 8.621746
v -0.041873 0.237015 8.412020
v 0.051469 0.353081 8.489154
v 0.160223 0.287497 8.397722
v 0.187067 -0.057879 8.380578
v 0.265591 0.012482 8.372033
v 0.312330 -0.076008 8.438338
v 0.367932 0.110479 8.384588
v 0.372596 0.221846 8.399949
v 0.360631 0.314599 8.483771
v 0.384406 -0.091271 8.501692
v 0.372711 -0.005162 8.430511
v 0.456586 -0.080183 8.606940
v 0.504505 0.084715 8.573886
v 0.445911 0.298486 8.614120
v 0.519880 0.048038 8.689141
v 0.475940 -0.051899 8.701487
v 0.522295 0.169942 8.719846
v 0.487105 0.260827 8.769269
v 0.470628 -0.083856 8.781053
v 0.506413 0.003028 8.742173
v 0.011794 -0.150766 8.878855
v 0.074761 -0.103971 9.085574
v 0.076690 -0.101977 8.657290
v 0.229953 -0.119501 8.890494
v 0.133395 -0.112856 8.608911
v 0.103080 -0.104707 8.538441
v 0.257868 -0.117451 8.789898
v 0.047990 -0.116237 9.049764
v -0.099337 0.376914 8.758162
v -0.025603 0.399567 8.881956
v 0.102877 0.339372 9.050984
v -0.009746 0.417456 8.739895
v 0.014456 0.411357 8.584833
v 0.074856 0.435119 8.675805
v 0.113196 0.382269 8.993312
v 0.129583 0.431602 8.810654
v 0.226765 0.433759 8.768170
v 0.287039 0.355275 8.970290
v 0.327619 0.405531 8.796201
v 0.400361 0.350498 8.855331
v 0.280778 0.394813 8.580100
v 0.021067 0.342761 9.028162
v 0.315547 0.415330 8.707418
v -0.086944 0.387958 8.669515
v 0.242396 0.079433 9.207251
v 0.152224 -0.099273 8.419784
vn 0.8760 -0.3796 0.2974
vn 0.8629 0.0070 0.5053
vn 0.6815 -0.3713 0.6307
vn 0.9765 0.0003 0.2154
vn 0.8737 0.3803 0.3032
vn 0.7233 0.4231 0.5458
vn 0.5412 0.1771 0.8221
vn 0.4263 -0.6795 0.5971
vn 0.3790 -0.2946 0.8772
vn 0.2345 -0.6861 0.6886
vn -0.0288 -0.6956 0.7179
vn -0.0353 -0.2761 0.9605
vn 0.2843 0.6688 0.6870
vn 0.0590 0.5199 0.8522
vn 0.3770 0.5142 0.7704
vn 0.8112 -0.5169 0.2736
vn 0.9150 0.3512 0.1983
vn 0.6700 0.5702 0.4754
vn -0.2108 0.3774 0.9018
vn 0.1439 0.1003 0.9845
vn -0.4947 0.0310 0.8685
vn -0.2642 -0.1013 0.9591
vn -0.1964 -0.6952 0.6915
vn -0.2352 -0.5270 0.8167
vn -0.3476 -0.6346 0.6903
vn -0.1660 -0.8326 0.5284
vn 0.0910 -0.8961 0.4343
vn 0.1812 -0.9387 0.2934
vn 0.4492 -0.8544 0.2613
vn -0.5182 -0.4068 0.7523
vn -0.6311 -0.6572 0.4122
vn -0.4016 -0.7711 0.4941
vn -0.6993 -0.3031 0.6474
vn -0.7217 0.1046 0.6843
vn -0.8257 -0.4106 0.3867
vn -0.9645 -0.0540 0.2583
vn -0.5245 0.5775 0.6256
vn -0.5385 0.7794 0.3202
vn -0.8760 0.3928 0.2797
vn -0.9271 -0.3665 0.0787
vn -0.6851 0.7120 0.1538
vn -0.6806 -0.7095 0.1829
vn -0.8590 -0.5032 0.0945
vn -0.9727 0.2249 0.0573
vn -0.9913 -0.0444 -0.1241
vn -0.7244 -0.6868 -0.0598
vn -0.8401 0.4914 0.2296
vn -0.9369 0.3491 0.0189
vn -0.9100 -0.3514 -0.2199
vn -0.9737 0.1479 -0.1734
vn -0.3626 0.3195 0.8754
vn -0.5593 0.2765 0.7815
vn -0.3071 0.4806 0.8214
vn -0.2673 0.7335 0.6249
vn -0.0466 0.6911 0.7212
vn -0.8358 0.4833 -0.2604
vn -0.9311 0.1921 -0.3100
vn -0.9337 0.0607 -0.3528
vn -0.9210 -0.1417 -0.3629
vn -0.8424 -0.4556 -0.2879
vn -0.6081 -0.7540 -0.2482
vn -0.3657 -0.9282 0.0688
vn -0.7928 -0.4691 -0.3892
vn -0.3694 -0.8317 -0.4145
vn -0.9487 0.2778 -0.1511
vn -0.9020 0.0948 -0.4212
vn -0.8574 -0.0619 -0.5109
vn -0.6608 0.5643 -0.4949
vn -0.5161 -0.5845 -0.6261
vn -0.8016 -0.2115 -0.5591
vn -0.6842 -0.3269 -0.6519
vn -0.5850 0.1146 -0.8029
vn -0.5315 -0.2778 -0.8002
vn -0.1937 -0.8750 -0.4436
vn -0.1679 -0.9504 -0.2617
vn -0.2495 0.1388 -0.9584
vn -0.3068 -0.2207 -0.9258
vn 0.1501 -0.0363 -0.9880
vn 0.0469 -0.2532 -0.9663
vn 0.1336 0.3711 -0.9189
vn -0.3963 0.7421 -0.5407
vn -0.3500 0.5335 -0.7700
vn -0.0056 0.6090 -0.7931
vn 0.0738 -0.4845 -0.8717
vn -0.0820 -0.5551 -0.8278
vn 0.1662 -0.6167 -0.7695
vn 0.0831 -0.9629 -0.2569
vn 0.5146 -0.0804 -0.8537
vn 0.8479 0.0419 -0.5285
vn 0.6271 -0.3556 -0.6931
vn 0.5187 0.4083 -0.7512
vn 0.4882 0.6834 -0.5428
vn 0.5132 -0.7128 -0.4780
vn 0.7574 -0.6133 -0.2242
vn 0.3337 -0.9327 -0.1371
vn 0.9315 -0.1492 -0.3319
vn 0.7920 0.5443 -0.2764
vn 0.9499 0.2052 -0.2358
vn 0.8442 -0.5342 -0.0454
vn 0.8717 -0.4890 0.0311
vn 0.9757 0.2041 -0.0798
vn 0.9160 -0.3966 0.0604
vn 0.9779 -0.1898 -0.0871
vn 0.3342 -0.3645 -0.8692
vn 0.4983 0.8219 -0.2762
vn 0.7002 0.7103 -0.0727
vn 0.8849 0.4657 -0.0061
vn 0.8309 0.4722 0.2944
vn 0.5186 -0.8378 -0.1708
vn -0.1315 -0.9854 -0.1077
vn 0.3763 -0.7233 -0.5790
vn 0.1077 -0.9805 -0.1641
vn 0.0452 -0.9983 -0.0361
vn 0.0567 -0.9944 0.0894
vn -0.1758 -0.9322 0.3163
vn 0.0676 -0.9867 -0.1481
vn -0.2472 -0.9517 -0.1819
vn 0.0080 -0.9986 -0.0519
vn -0.0683 -0.9960 -0.0575
vn -0.0389 -0.9991 -0.0137
vn -0.1515 -0.9820 -0.1125
vn -0.1301 -0.9869 -0.0951
vn -0.0715 -0.9957 0.0585
vn -0.1453 -0.8935 0.4248
vn -0.2732 0.9613 0.0351
vn -0.5069 0.8497 -0.1453
vn -0.5289 0.8450 0.0789
vn -0.7329 0.6641 -0.1478
vn -0.3515 0.9003 0.2567
vn -0.2177 0.9056 -0.3639
vn -0.1158 0.9913 -0.0621
vn 0.0064 0.8959 0.4442
vn 0.1310 0.9851 0.1111
vn -0.0231 0.9862 0.1636
vn 0.0557 0.9697 -0.2379
vn 0.3545 0.7980 0.4873
vn 0.3662 0.9138 0.1756
vn 0.3517 0.9332 -0.0735
vn 0.5570 0.7755 0.2972
vn -0.1485 0.7827 -0.6044
vn 0.2095 0.9030 -0.3751
vn 0.0068 0.8464 -0.5325
vn 0.7499 0.6331 0.1917
vn 0.5488 0.5021 0.6683
vn 0.9856 0.1587 0.0577
vn -0.3761 -0.5876 -0.7164
vn 0.2911 -0.2183 -0.9315
vn -0.1442 -0.9863 -0.0795
vn 0.1965 0.8320 0.5188
vt 0.226089 0.471060
vt 0.385723 0.832710
vt 0.334684 0.350248
vt 0.420204 0.815083
vt 0.373167 0.324002
vt 0.462489 0.841221
vt 0.614297 0.818596
vt 0.410764 0.234819
vt 0.896803 0.689264
vt 0.110884 0.467150
vt 0.699750 0.604320
vt 0.671008 0.472265
vt 0.941674 0.225176
vt 0.852389 0.171532
vt 0.827940 0.124823
vt 0.809431 0.102149
vt 0.052037 0.173257
vt 0.771731 0.083597
vt 0.022937 0.219083
vt 0.670076 0.051479
vt 0.111571 0.782802
vt 0.223263 0.010968
vt 0.018568 0.803075
vt 0.376723 0.708647
vt 0.346900 0.222231
vt 0.307835 0.208013
vt 0.290111 0.111192
vt 0.641868 0.682616
vt 0.467358 0.118117
vt 0.641175 0.733443
vt 0.444625 0.161157
vt 0.297721 0.486844
vt 0.269558 0.509377
vt 0.865251 0.867613
vt 0.428702 0.419543
vt 0.742752 0.876258
vt 0.478376 0.449341
vt 0.721472 0.823795
vt 0.848367 0.675123
vt 0.746111 0.616546
vt 0.867022 0.606854
vt 0.041709 0.443106
vt 0.831347 0.548848
vt 0.959255 0.104253
vt 0.824824 0.238736
vt 0.847326 0.246527
vt 0.779937 0.332501
vt 0.136085 0.582477
vt 0.254516 0.001126
vt 0.044364 0.836675
vt 0.509553 0.543219
vt 0.330129 0.171038
vt 0.377731 0.654835
vt 0.524169 0.621855
vt 0.136214 0.435268
vt 0.071259 0.325332
vt 0.063227 0.239679
vt 0.169175 0.405558
vt 0.120422 0.305895
vt 0.303022 0.314256
vt 0.261003 0.223032
vt 0.515569 0.353704
vt 0.624092 0.152473
vt 0.265685 0.436375
vt 0.526873 0.827501
vt 0.547419 0.761983
vt 0.408367 0.198558
vt 0.613865 0.789166
vt 0.483344 0.387704
vt 0.749040 0.765094
vt 0.749816 0.690637
vt 0.818663 0.777414
vt 0.851487 0.769174
vt 0.748500 0.378765
vt 0.998910 0.139704
vt 0.915315 0.222186
vt 0.110768 0.153279
vt 0.875030 0.298017
vt 0.752891 0.138476
vt 0.234684 0.596077
vt 0.902874 0.350760
vt 0.180122 0.782100
vt 0.066617 0.752290
vt 0.226807 0.066639
vt 0.653311 0.602481
vt 0.531224 0.071205
vt 0.554490 0.837265
vt 0.557641 0.885170
vt 0.376723 0.284822
vt 0.529035 0.888992
vt 0.406766 0.424812
vt 0.526978 0.987534
vt 0.779425 0.904744
vt 0.339706 0.472855
vt 0.473512 0.956336
vt 0.567345 0.926596
vt 0.402120 0.352382
vt 0.881934 0.818935
vt 0.218030 0.511702
vt 0.492087 0.999782
vt 0.290542 0.526397
vt 0.815853 0.896082
vt 0.817444 0.844089
vt 0.591188 0.779883
vt 0.182321 0.502012
vt 0.881887 0.778449
vt 0.813899 0.681756
vt 0.829434 0.592645
vt 0.786508 0.573945
vt 0.797074 0.507519
vt 0.945564 0.004807
vt 0.752891 0.446827
vt 0.740482 0.506395
vt 0.987427 0.049424
vt 0.824198 0.505229
vt 0.916645 0.000218
vt 0.948467 0.069663
vt 0.855055 0.472700
vt 0.856606 0.037636
vt 0.869415 0.079833
vt 0.833633 0.090566
vt 0.887969 0.098354
vt 0.934515 0.120430
vt 0.722522 0.670216
vt 0.691995 0.436660
vt 0.894347 0.161184
vt 0.901675 0.473110
vt 0.797806 0.050012
vt 0.008613 0.260916
vt 0.898764 0.536602
vt 0.028662 0.339016
vt 0.885844 0.733169
vt 0.141985 0.491627
vt 0.000218 0.163324
vt 0.021314 0.526832
vt 0.770450 0.137949
vt 0.753326 0.225296
vt 0.055108 0.566870
vt 0.081707 0.629350
vt 0.041100 0.627670
vt 0.081200 0.047285
vt 0.075709 0.681606
vt 0.140271 0.008310
vt 0.031708 0.702179
vt 0.127514 0.656927
vt 0.026111 0.743593
vt 0.173801 0.000218
vt 0.774651 0.183810
vt 0.884469 0.213453
vt 0.815001 0.358492
vt 0.174451 0.601302
vt 0.243854 0.654032
vt 0.716244 0.092925
vt 0.216853 0.730431
vt 0.682863 0.008205
vt 0.201570 0.007666
vt 0.026576 0.776113
vt 0.071404 0.822135
vt 0.023815 0.860676
vt 0.273994 0.040982
vt 0.495134 0.472700
vt 0.132807 0.881783
vt 0.558232 0.476503
vt 0.194861 0.875916
vt 0.614488 0.525489
vt 0.243854 0.861111
vt 0.560907 0.000218
vt 0.388082 0.562921
vt 0.018858 0.909955
vt 0.316834 0.080351
vt 0.432717 0.510145
vt 0.067647 0.894693
vt 0.361536 0.145434
vt 0.399269 0.636196
vt 0.489634 0.607634
vt 0.611659 0.617753
vt 0.485420 0.053419
vt 0.474895 0.686757
vt 0.376288 0.204780
vt 0.419817 0.698060
vt 0.544686 0.699906
vt 0.598267 0.724862
vt 0.406013 0.752071
vt 0.376288 0.259785
vt 0.452476 0.723539
vt 0.122530 0.351282
vt 0.901675 0.751641
vt 0.166281 0.481123
vt 0.150405 0.198581
vt 0.245483 0.346142
vt 0.180223 0.164731
vt 0.160478 0.119161
vt 0.257160 0.278335
vt 0.149785 0.459698
vt 0.726329 0.296914
vt 0.998910 0.233241
vt 0.658917 0.348615
vt 0.653747 0.728108
vt 0.551360 0.413350
vt 0.686279 0.258791
vt 0.712249 0.159370
vt 0.953300 0.358092
vt 0.659689 0.195367
vt 0.561088 0.374858
vt 0.598716 0.259878
vt 0.560190 0.206049
vt 0.478591 0.310935
vt 0.501908 0.193965
vt 0.653311 0.770787
vt 0.449700 0.209327
vt 0.578730 0.079037
vt 0.655129 0.675911
vt 0.598341 0.423589
vt 0.530080 0.144295
vt 0.742140 0.240134
vt 0.972021 0.282911
vt 0.789512 0.878846
vt 0.000218 0.756788
vt 0.183361 0.038177
s 1
f 4/6/1 67/90/2 69/95/3
f 48/65/4 65/87/5 67/90/2
f 65/87/5 66/88/6 67/90/2
f 67/90/2 66/88/6 68/92/7
f 67/90/2 68/92/7 69/95/3
f 22/32/8 72/101/9 23/33/10
f 69/95/3 68/92/7 72/100/9
f 23/33/10 71/99/11 22/32/8
f 23/34/10 73/103/12 71/98/11
f 23/34/10 72/102/9 73/103/12
f 51/69/13 25/37/14 24/35/15
f 4/6/1 69/95/3 3/4/16
f 74/104/17 5/7/18 66/88/6
f 25/38/14 52/70/19 148/217/20
f 52/70/19 76/107/21 54/72/22
f 75/106/23 55/73/24 93/132/25
f 75/106/23 93/132/25 125/187/26
f 1/1/27 75/105/23 125/188/26
f 71/99/11 75/105/23 1/1/27
f 22/32/8 47/64/28 2/3/29
f 26/39/30 28/41/31 6/9/32
f 77/108/33 28/41/31 26/39/30
f 76/107/21 77/108/33 26/39/30
f 78/109/34 77/108/33 76/107/21
f 77/108/33 29/43/35 28/41/31
f 78/109/34 29/43/35 77/108/33
f 78/109/34 79/110/36 29/43/35
f 7/12/37 89/125/38 80/112/39
f 79/110/36 81/115/40 29/43/35
f 89/125/38 56/74/41 80/112/39
f 29/43/35 92/130/42 28/41/31
f 81/115/40 83/118/43 29/43/35
f 82/117/44 84/120/45 79/111/36
f 80/114/39 82/117/44 79/111/36
f 83/118/43 91/127/46 92/130/42
f 30/44/47 87/123/48 82/117/44
f 85/121/49 91/128/46 83/119/43
f 82/117/44 87/123/48 86/122/50
f 55/73/24 6/9/32 93/132/25
f 54/72/22 26/39/30 55/73/24
f 53/71/51 27/40/52 76/107/21
f 88/124/53 27/40/52 53/71/51
f 52/70/19 145/212/54 88/124/53
f 52/70/19 134/198/55 145/212/54
f 87/123/48 57/76/56 90/126/57
f 90/126/57 57/76/56 9/14/58
f 85/121/49 10/15/59 11/16/60
f 91/128/46 11/16/60 13/18/61
f 28/42/31 92/131/42 39/56/62
f 94/134/63 12/17/64 13/19/61
f 103/149/65 32/46/66 31/45/67
f 103/149/65 59/78/68 32/46/66
f 94/134/63 97/141/69 12/17/64
f 102/148/70 95/137/71 94/136/63
f 102/148/70 31/45/67 95/137/71
f 31/45/67 33/47/72 95/137/71
f 32/46/66 59/78/68 33/47/72
f 95/138/71 96/139/73 97/140/69
f 95/138/71 33/48/72 96/139/73
f 97/141/69 149/219/74 58/77/75
f 96/139/73 100/145/76 98/142/77
f 98/142/77 15/21/78 62/83/79
f 100/145/76 61/82/80 15/21/78
f 11/16/60 94/136/63 13/18/61
f 11/16/60 10/15/59 102/148/70
f 10/15/59 86/122/50 90/126/57
f 59/78/68 60/81/81 104/150/82
f 100/145/76 106/154/83 61/82/80
f 62/83/79 107/157/84 101/146/85
f 149/218/74 107/157/84 16/23/86
f 149/219/74 16/22/86 63/84/87
f 97/141/69 58/77/75 12/17/64
f 110/161/88 35/51/89 114/171/90
f 110/161/88 111/163/91 35/51/89
f 111/163/91 112/165/92 35/51/89
f 113/168/93 114/171/90 115/174/94
f 113/170/93 115/173/94 36/52/95
f 114/171/90 116/175/96 115/174/94
f 114/171/90 35/51/89 116/175/96
f 35/51/89 117/176/97 37/54/98
f 36/53/95 119/180/99 122/183/100
f 117/176/97 120/181/101 37/54/98
f 115/174/94 123/185/102 119/180/99
f 118/178/103 48/65/4 123/185/102
f 120/181/101 48/65/4 118/178/103
f 16/22/86 34/49/104 63/84/87
f 61/82/80 110/162/88 15/21/78
f 64/85/105 117/176/97 112/165/92
f 20/28/106 121/182/107 117/176/97
f 121/182/107 50/68/108 74/104/17
f 123/185/102 4/6/1 119/180/99
f 4/6/1 3/4/16 122/183/100
f 36/52/95 17/25/109 18/26/110
f 63/84/87 109/160/111 19/27/112
f 124/186/113 41/58/114 38/55/115
f 39/56/62 42/59/116 124/186/113
f 40/57/117 126/189/118 42/59/116
f 42/59/116 127/190/119 41/58/114
f 127/190/119 43/60/120 47/64/28
f 126/189/118 127/190/119 42/59/116
f 126/189/118 130/193/121 127/190/119
f 18/26/110 17/25/109 43/60/120
f 130/193/121 18/26/110 43/60/120
f 44/61/122 18/26/110 130/193/121
f 128/191/123 44/61/122 126/189/118
f 93/133/25 131/194/124 125/188/26
f 13/19/61 40/57/117 91/129/46
f 13/19/61 12/17/64 40/57/117
f 12/17/64 58/77/75 40/57/117
f 128/191/123 63/84/87 19/27/112
f 44/61/122 19/27/112 18/26/110
f 19/27/112 36/52/95 18/26/110
f 17/25/109 2/3/29 43/60/120
f 43/60/120 2/3/29 47/64/28
f 41/58/114 47/64/28 1/1/27
f 135/200/125 147/215/126 132/195/127
f 132/196/127 147/216/126 8/13/128
f 133/197/129 135/200/125 132/195/127
f 135/200/125 136/201/130 147/215/126
f 137/203/131 136/201/130 135/200/125
f 138/204/132 140/206/133 139/205/134
f 140/206/133 46/63/135 137/203/131
f 139/205/134 140/206/133 137/203/131
f 141/207/136 142/208/137 138/204/132
f 140/206/133 142/208/137 146/214/138
f 141/207/136 143/210/139 142/208/137
f 105/153/140 144/211/141 14/20/142
f 146/214/138 64/86/105 144/211/141
f 142/208/137 143/210/139 21/31/143
f 142/208/137 21/31/143 146/214/138
f 89/125/38 132/195/127 56/74/41
f 145/213/54 133/197/129 89/125/38
f 5/8/18 50/67/108 143/210/139
f 146/214/138 20/29/106 64/86/105
f 136/201/130 105/153/140 60/79/81
f 57/76/56 8/13/128 59/78/68
f 8/13/128 147/216/126 59/78/68
f 4/6/1 48/65/4 67/90/2
f 65/87/5 74/104/17 66/88/6
f 69/94/3 22/32/8 2/3/29
f 68/91/7 70/97/144 24/35/15
f 68/92/7 66/88/6 70/96/144
f 66/89/6 5/8/18 70/97/144
f 22/32/8 69/94/3 72/101/9
f 70/97/144 141/207/136 24/35/15
f 72/102/9 68/93/7 148/217/20
f 71/98/11 73/103/12 55/73/24
f 72/102/9 148/217/20 73/103/12
f 3/4/16 69/95/3 2/2/29
f 49/66/145 74/104/17 65/87/5
f 55/73/24 73/103/12 54/72/22
f 74/104/17 50/68/108 5/7/18
f 5/8/18 141/207/136 70/97/144
f 141/207/136 51/69/13 24/35/15
f 51/69/13 134/199/55 25/37/14
f 25/38/14 134/198/55 52/70/19
f 148/217/20 52/70/19 54/72/22
f 52/70/19 53/71/51 76/107/21
f 73/103/12 148/217/20 54/72/22
f 76/107/21 27/40/52 78/109/34
f 47/64/28 22/32/8 71/99/11
f 27/40/52 80/113/39 78/109/34
f 88/124/53 7/11/37 27/40/52
f 27/40/52 7/11/37 80/113/39
f 78/109/34 80/113/39 79/110/36
f 29/43/35 83/118/43 92/130/42
f 81/116/40 79/111/36 83/119/43
f 80/114/39 56/75/41 82/117/44
f 56/75/41 30/44/47 82/117/44
f 79/111/36 84/120/45 83/119/43
f 30/44/47 56/75/41 8/13/128
f 84/120/45 82/117/44 86/122/50
f 86/122/50 87/123/48 90/126/57
f 87/123/48 30/44/47 8/13/128
f 55/73/24 26/39/30 6/9/32
f 54/72/22 76/107/21 26/39/30
f 53/71/51 52/70/19 88/124/53
f 88/124/53 145/212/54 7/11/37
f 87/123/48 8/13/128 57/76/56
f 10/15/59 85/121/49 84/120/45
f 10/15/59 90/126/57 9/14/58
f 33/47/72 31/45/67 32/46/66
f 91/128/46 85/121/49 11/16/60
f 39/56/62 92/131/42 91/129/46
f 93/133/25 6/10/32 38/55/115
f 94/135/63 95/138/71 97/140/69
f 99/144/146 97/140/69 96/139/73
f 33/47/72 59/78/68 104/150/82
f 97/141/69 99/143/146 149/219/74
f 96/139/73 98/142/77 99/144/146
f 96/139/73 33/48/72 100/145/76
f 100/145/76 33/48/72 104/151/82
f 99/143/146 101/147/85 149/219/74
f 104/151/82 105/152/140 106/154/83
f 100/145/76 104/151/82 106/154/83
f 99/144/146 62/83/79 101/146/85
f 99/144/146 98/142/77 62/83/79
f 98/142/77 100/145/76 15/21/78
f 11/16/60 102/148/70 94/136/63
f 9/14/58 103/149/65 31/45/67
f 9/14/58 57/76/56 103/149/65
f 103/149/65 57/76/56 59/78/68
f 104/151/82 60/80/81 105/152/140
f 149/219/74 101/147/85 107/156/84
f 108/158/147 114/172/90 34/50/104
f 61/82/80 111/164/91 110/162/88
f 109/159/111 34/50/104 114/172/90
f 109/159/111 114/172/90 113/169/93
f 61/82/80 112/166/92 111/164/91
f 116/175/96 35/51/89 37/54/98
f 112/165/92 117/176/97 35/51/89
f 36/52/95 115/173/94 119/179/99
f 115/174/94 118/178/103 123/185/102
f 115/174/94 116/175/96 118/178/103
f 117/176/97 121/182/107 120/181/101
f 120/181/101 49/66/145 48/65/4
f 63/84/87 34/49/104 109/160/111
f 16/23/86 108/158/147 34/50/104
f 48/65/4 49/66/145 65/87/5
f 106/154/83 112/166/92 61/82/80
f 64/86/105 20/29/106 117/177/97
f 20/28/106 21/30/143 121/182/107
f 21/30/143 143/209/139 121/182/107
f 121/182/107 143/209/139 50/68/108
f 123/185/102 48/65/4 4/6/1
f 119/180/99 4/6/1 122/183/100
f 113/170/93 36/52/95 19/27/112
f 17/24/109 36/53/95 122/183/100
f 109/160/111 113/170/93 19/27/112
f 38/55/115 41/58/114 131/194/124
f 39/56/62 40/57/117 42/59/116
f 124/186/113 42/59/116 41/58/114
f 40/57/117 58/77/75 126/189/118
f 41/58/114 127/190/119 47/64/28
f 127/190/119 130/193/121 43/60/120
f 130/193/121 126/189/118 44/61/122
f 129/192/148 63/84/87 128/191/123
f 93/133/25 38/55/115 131/194/124
f 6/10/32 28/42/31 38/55/115
f 28/42/31 39/56/62 38/55/115
f 39/56/62 124/186/113 38/55/115
f 91/129/46 40/57/117 39/56/62
f 58/77/75 149/219/74 129/192/148
f 125/188/26 131/194/124 41/58/114
f 44/61/122 128/191/123 19/27/112
f 1/1/27 125/188/26 41/58/114
f 133/197/129 139/205/134 135/200/125
f 89/125/38 133/197/129 132/195/127
f 105/153/140 136/201/130 46/63/135
f 145/213/54 138/204/132 133/197/129
f 133/197/129 138/204/132 139/205/134
f 145/213/54 134/199/55 138/204/132
f 134/199/55 45/62/149 138/204/132
f 135/200/125 139/205/134 137/203/131
f 45/62/149 141/207/136 138/204/132
f 137/203/131 46/63/135 136/201/130
f 138/204/132 142/208/137 140/206/133
f 140/206/133 146/214/138 46/63/135
f 46/63/135 144/211/141 105/153/140
f 46/63/135 146/214/138 144/211/141
f 56/75/41 132/196/127 8/13/128
f 7/12/37 145/213/54 89/125/38
f 134/199/55 51/69/13 45/62/149
f 51/69/13 141/207/136 45/62/149
f 141/207/136 5/8/18 143/210/139
f 146/214/138 21/31/143 20/29/106
f 144/211/141 64/86/105 112/167/92
f 14/20/142 112/167/92 106/155/83
f 105/153/140 14/20/142 106/155/83
f 59/78/68 147/216/126 60/81/81
f 147/216/126 136/202/130 60/81/81
f 55/73/24 75/106/23 71/98/11
f 1/1/27 47/64/28 71/99/11
f 85/121/49 83/119/43 84/120/45
f 9/14/58 102/148/70 10/15/59
f 107/157/84 108/158/147 16/23/86
f 108/158/147 110/162/88 114/172/90
f 37/54/98 118/178/103 116/175/96
f 121/182/107 49/66/145 120/181/101
f 122/184/100 2/3/29 17/25/109
f 108/158/147 62/83/79 15/21/78
f 58/77/75 128/191/123 126/189/118
f 24/36/15 148/217/20 68/93/7
f 63/84/87 129/192/148 149/219/74
f 144/211/141 112/167/92 14/20/142
f 10/15/59 84/120/45 86/122/50
f 9/14/58 31/45/67 102/148/70
f 107/157/84 62/83/79 108/158/147
f 108/158/147 15/21/78 110/162/88
f 37/54/98 120/181/101 118/178/103
f 121/182/107 74/104/17 49/66/145
f 122/184/100 3/5/16 2/3/29
f 58/77/75 129/192/148 128/191/123
f 24/36/15 25/38/14 148/217/20
