v 0.487527 -0.094328 7.024839
v 0.077791 -0.015991 7.528704
v 0.233581 -0.053313 7.504158
v -0.290971 0.261042 7.340425
v -0.320616 0.132292 7.394673
v -0.376106 0.093244 7.271309
v 0.641701 0.162236 7.093001
v -0.023542 0.193025 6.684531
v 0.236253 -0.011832 7.611001
v 0.474763 0.317598 7.029518
v 0.513366 0.286387 6.986478
v -0.232525 0.327368 7.206593
v -0.160816 0.319128 7.163900
v 0.003816 -0.086733 6.814235
v 0.569770 0.225976 7.287629
v 0.329376 0.229871 7.634546
v 0.168577 0.270564 7.625837
v 0.066815 0.299835 7.535658
v -0.164562 0.318977 7.372545
v -0.142503 -0.074744 6.983083
v -0.239231 -0.032968 7.039063
v -0.020661 0.314841 7.426386
v 0.106233 0.322699 7.449374
v 0.055306 0.354881 7.266439
v 0.091590 0.348947 7.170588
v 0.306599 0.366368 7.378017
v 0.096265 0.332355 7.037690
v 0.312106 0.373067 7.286865
v 0.366445 0.329953 7.020566
v 0.397692 0.271870 6.847131
v 0.575185 0.045817 6.889833
v 0.631243 0.095325 6.935721
v 0.608680 0.158983 6.947507
v 0.639996 0.096673 7.206211
v 0.503259 -0.087664 7.267944
v 0.580146 0.040237 7.416040
v 0.458249 -0.088246 7.349889
v 0.534176 -0.001817 7.402891
v 0.497994 0.150249 7.560428
v 0.448403 0.020706 7.537610
v -0.127621 -0.054329 7.282912
v -0.187638 -0.038421 7.204332
v 0.051125 -0.082007 7.209461
v -0.329377 0.043419 6.947062
v -0.149052 0.228910 6.792655
v -0.262534 0.138535 6.816237
v -0.135417 0.021380 6.737777
v 0.033007 0.124827 7.676825
v -0.093885 0.081620 7.603075
v -0.234214 0.078474 7.488748
v -0.077793 0.197020 7.593058
v 0.313665 -0.067077 7.505890
v 0.401517 -0.103340 7.386325
v 0.375956 -0.111090 7.304202
v 0.481616 -0.089610 7.174138
v 0.394099 -0.113037 7.153035
v -0.234119 0.309092 7.297231
v 0.507625 -0.059058 6.973384
v 0.588814 -0.018071 7.075755
v 0.675781 0.084667 7.046762
v -0.027414 0.097052 6.669906
v 0.335820 0.328108 6.959309
v 0.544892 0.296056 7.095729
v 0.446814 -0.090817 6.972569
v 0.394482 -0.088484 6.888628
v 0.342725 -0.103752 6.870753
v 0.160498 -0.098283 6.798446
v -0.073263 -0.025526 6.754593
v 0.487774 0.316515 7.244368
v 0.430131 0.288117 7.471480
v -0.099538 -0.069417 6.850408
v 0.244403 0.287916 7.607728
v 0.003560 0.339779 7.355375
v 0.200418 0.296179 7.561812
v 0.053476 0.343252 7.315149
v -0.036610 0.353367 7.213502
v 0.228124 0.318242 7.463503
v 0.174701 0.363663 7.336461
v 0.349892 0.314107 7.492086
v -0.159318 0.298273 7.028274
v 0.221595 0.350968 7.162364
v 0.227383 0.356752 7.266201
v 0.346990 0.368373 7.211833
v 0.194518 0.349033 7.075956
v 0.405942 0.373225 7.219182
v 0.497105 0.339672 7.165787
v 0.000538 0.288147 7.511121
v 0.243833 0.237686 7.665459
v 0.313760 0.283882 7.565862
v 0.393753 0.340507 7.364561
v 0.070741 0.310660 6.835362
v -0.035145 0.303773 6.923268
v 0.064651 0.169738 6.654760
v 0.132914 0.233903 6.716101
v 0.209513 0.151092 6.664761
v 0.239612 0.256100 6.750527
v 0.324999 0.134690 6.669729
v 0.244875 0.053266 6.657002
v 0.337502 0.224524 6.725584
v 0.324295 0.064422 6.689654
v 0.418641 0.149622 6.712452
v 0.325259 -0.045741 6.760800
v 0.484006 0.164316 6.793045
v 0.432927 -0.038323 6.839746
v 0.184449 0.089598 6.658703
v 0.059639 0.286242 6.771324
v 0.240498 0.300753 6.831659
v 0.603418 0.214268 7.017210
v 0.219269 -0.039204 6.726210
v 0.051885 -0.001780 6.703146
v 0.588169 -0.011960 7.232216
v 0.542992 0.164959 7.467238
v 0.502215 0.108817 7.562645
v 0.405317 -0.075557 7.458412
v 0.412060 0.200100 7.617126
v 0.527353 -0.065055 7.105015
v 0.623656 0.027828 7.016676
v 0.652320 0.052429 7.130393
v 0.577308 0.265518 7.146020
v 0.391440 0.256256 7.558744
v 0.337034 0.147656 7.665143
v 0.344209 -0.013288 7.585722
v -0.040581 -0.074114 7.328980
v 0.215721 -0.078893 7.379241
v -0.058829 -0.073388 7.130129
v 0.258240 -0.090742 7.232138
v -0.081516 -0.083998 7.066284
v 0.036497 -0.085881 7.065462
v 0.183678 -0.093927 7.103265
v 0.094936 -0.107310 6.985763
v -0.073991 -0.093869 6.942354
v 0.023730 -0.051354 7.457896
v 0.063735 -0.108219 6.857430
v 0.225570 -0.121806 6.913301
v -0.431816 0.153723 7.144468
v -0.293122 0.298088 7.139429
v -0.418029 0.121496 7.011308
v -0.415494 0.171437 7.059149
v -0.421000 0.087914 7.081302
v -0.374359 0.246185 7.148180
v -0.233858 0.245545 6.932093
v -0.291409 0.070473 6.855169
v -0.124496 0.259457 6.828435
v -0.138360 0.088110 6.705415
v -0.175913 0.202535 6.768107
v -0.029204 0.235213 6.737128
v -0.326375 0.036824 7.264990
v -0.291775 0.294890 7.250073
v -0.194868 -0.011844 6.825212
v -0.196650 -0.049910 6.926835
v -0.349074 0.032425 7.160946
v 0.205274 0.178756 7.699226
v 0.116443 0.071052 7.691118
v 0.100801 0.169476 7.682949
v 0.071950 0.021674 7.635615
v 0.053402 0.216919 7.640372
v -0.073715 0.023807 7.555867
v -0.165248 0.194097 7.540165
v -0.255035 0.160339 7.471416
v -0.107235 -0.013106 7.452316
v -0.215369 0.247575 7.439486
v 0.243368 0.072314 7.685905
v 0.051235 0.242769 7.631373
v -0.044710 0.285769 7.511700
v 0.450891 0.077079 6.761492
v 0.384750 -0.114354 6.992852
vn -0.2969 0.9159 0.2703
vn -0.0944 0.9475 0.3054
vn -0.0602 0.9817 0.1808
vn -0.3189 0.9198 0.2285
vn -0.1131 0.9867 -0.1168
vn -0.1011 0.9614 0.2561
vn -0.1844 0.9270 0.3266
vn -0.0183 0.9608 0.2768
vn 0.1125 0.9010 0.4189
vn -0.1193 0.7854 0.6074
vn -0.0955 0.9799 0.1751
vn -0.0550 0.9899 0.1303
vn -0.0828 0.9935 0.0785
vn 0.2258 0.8864 0.4041
vn 0.0365 0.9586 0.2824
vn 0.2502 0.8566 0.4512
vn -0.0553 0.9932 -0.1028
vn -0.0882 0.9893 -0.1160
vn -0.0122 0.9990 0.0431
vn -0.0820 0.9797 0.1830
vn 0.4156 0.8788 0.2344
vn -0.0237 0.9971 -0.0728
vn -0.0080 0.9960 -0.0888
vn -0.1283 0.9859 -0.1072
vn -0.0629 0.9853 -0.1586
vn 0.1275 0.9749 -0.1826
vn 0.2085 0.9780 0.0020
vn 0.2877 0.9239 -0.2522
vn -0.0901 0.9646 -0.2477
vn -0.1698 0.8214 0.5446
vn -0.1863 0.8832 0.4303
vn 0.3489 0.5898 0.7283
vn 0.5405 0.7596 0.3617
vn 0.4154 0.7600 0.4998
vn 0.5951 0.7565 0.2713
vn 0.6290 0.7698 -0.1086
vn 0.5729 0.8174 0.0595
vn 0.3620 0.8214 -0.4407
vn -0.1851 0.9699 -0.1580
vn -0.1983 0.9588 -0.2036
vn -0.1193 0.9837 -0.1346
vn -0.0079 -0.0869 -0.9962
vn 0.2001 -0.1101 -0.9736
vn -0.1165 -0.5772 -0.8082
vn 0.0812 -0.7192 -0.6901
vn 0.0340 0.6882 -0.7247
vn 0.1091 0.8163 -0.5672
vn 0.2694 0.6984 -0.6631
vn 0.2590 0.1131 -0.9592
vn 0.3904 -0.3552 -0.8494
vn 0.0811 0.3328 -0.9395
vn 0.3353 -0.6950 -0.6361
vn 0.2375 -0.9139 -0.3292
vn 0.5784 0.1947 -0.7921
vn 0.6219 -0.3399 -0.7054
vn 0.6836 0.3680 -0.6303
vn 0.5664 -0.7485 -0.3450
vn 0.5786 -0.6231 -0.5262
vn 0.8640 -0.0499 -0.5010
vn 0.6516 -0.4642 -0.6000
vn 0.7643 0.4746 -0.4366
vn 0.5190 0.7729 -0.3650
vn 0.7301 -0.6415 -0.2355
vn -0.2644 -0.7250 -0.6360
vn -0.1871 -0.8889 -0.4181
vn -0.2125 0.7701 -0.6015
vn -0.0574 0.3402 -0.9386
vn -0.2317 0.5227 -0.8204
vn -0.0968 0.8426 -0.5298
vn 0.1200 0.9193 -0.3748
vn 0.7740 0.5804 -0.2529
vn 0.9866 -0.1101 -0.1204
vn 0.6690 -0.7391 -0.0779
vn 0.4185 -0.8422 -0.3399
vn 0.0024 -0.8907 -0.4546
vn 0.4762 -0.8715 0.1170
vn 0.5712 -0.8201 -0.0339
vn 0.3184 -0.9479 -0.0075
vn 0.7813 -0.6059 0.1498
vn 0.8474 -0.3597 0.3905
vn 0.5944 -0.7189 0.3604
vn 0.8392 0.3812 0.3879
vn 0.6942 -0.1918 0.6937
vn 0.3620 -0.8247 0.4345
vn 0.4373 -0.8686 0.2329
vn 0.5207 -0.5675 0.6378
vn 0.3345 -0.6516 0.6809
vn 0.5339 0.4241 0.7315
vn 0.4085 -0.0151 0.9126
vn 0.8913 -0.4301 0.1434
vn 0.9020 0.4284 0.0543
vn 0.9660 0.0264 0.2572
vn 0.7584 0.6451 0.0925
vn 0.7956 0.5492 0.2558
vn 0.2026 -0.3788 0.9030
vn -0.0049 -0.9266 0.3759
vn 0.1591 -0.9662 0.2027
vn 0.0082 -0.9987 0.0506
vn 0.4832 -0.8637 -0.1431
vn -0.3131 -0.9422 0.1189
vn -0.2170 -0.9636 0.1559
vn -0.1490 -0.9045 0.3996
vn -0.3387 -0.9357 0.0990
vn -0.1091 -0.9818 0.1551
vn -0.1187 -0.9917 0.0492
vn -0.0845 -0.9957 0.0378
vn -0.1209 -0.9815 0.1483
vn -0.4629 -0.8864 -0.0002
vn -0.1268 -0.9900 0.0614
vn -0.0800 -0.9918 0.0993
vn 0.0785 -0.9960 0.0416
vn -0.0888 -0.9919 0.0905
vn -0.1415 -0.9847 0.1016
vn -0.2913 -0.9565 0.0152
vn 0.0004 -0.9979 -0.0644
vn -0.2007 -0.9796 -0.0048
vn -0.3210 -0.8934 -0.3142
vn -0.1133 -0.9835 -0.1409
vn 0.1685 -0.9814 -0.0919
vn -0.1361 -0.9187 0.3708
vn -0.5808 -0.7738 0.2529
vn -0.4628 -0.8685 -0.1775
vn -0.8566 -0.3716 0.3579
vn -0.9785 0.1317 0.1589
vn -0.8596 -0.5088 -0.0475
vn -0.8179 0.5030 -0.2795
vn -0.9057 -0.0287 -0.4230
vn -0.6743 -0.6718 -0.3068
vn -0.7204 0.2240 -0.6564
vn -0.4704 0.8065 -0.3582
vn -0.3859 0.8058 -0.4491
vn -0.5387 -0.6836 -0.4923
vn -0.7292 -0.3346 -0.5969
vn -0.5154 0.5803 -0.6306
vn -0.4790 -0.1146 -0.8703
vn -0.4678 -0.5143 -0.7188
vn -0.3221 0.8759 -0.3592
vn -0.6527 0.6315 0.4187
vn -0.7184 0.6954 -0.0156
vn -0.5479 0.8148 0.1893
vn -0.1128 0.9936 0.0074
vn -0.4043 0.8965 -0.1812
vn -0.2264 -0.1674 -0.9595
vn -0.2222 -0.7792 0.5860
vn -0.0012 -0.8174 0.5761
vn -0.1301 -0.3823 0.9149
vn 0.0292 0.2560 0.9662
vn -0.3429 0.4681 0.8144
vn -0.2158 0.3450 0.9135
vn -0.5200 -0.2984 0.8003
vn -0.3394 -0.7937 0.5048
vn -0.4374 0.4750 0.7636
vn -0.6487 -0.4445 0.6178
vn -0.7129 0.2290 0.6628
vn -0.3550 -0.8647 0.3552
vn -0.8516 0.0029 0.5241
vn -0.5425 0.4192 0.7280
vn -0.5293 0.6561 0.5379
vn -0.5216 0.4717 0.7109
vn 0.1358 0.5748 0.8070
vn 0.2009 0.9572 -0.2085
vn 0.3641 -0.8786 -0.3091
vn 0.7372 0.3323 0.5883
vn -0.1740 -0.9417 0.2880
vn -0.5887 -0.8023 0.0984
vn -0.3691 0.0384 0.9286
vt 0.003799 0.861602
vt 0.878543 0.421292
vt 0.555861 0.349743
vt 0.606208 0.417417
vt 0.409658 0.883193
vt 0.318105 0.874138
vt 0.991718 0.833913
vt 0.296474 0.930034
vt 0.553547 0.073454
vt 0.597012 0.562315
vt 0.160116 0.030533
vt 0.784228 0.543156
vt 0.554329 0.442702
vt 0.106644 0.350912
vt 0.684975 0.512746
vt 0.257089 0.891270
vt 0.075800 0.345740
vt 0.424309 0.161702
vt 0.383110 0.170999
vt 0.033489 0.587740
vt 0.862670 0.146491
vt 0.664225 0.655324
vt 0.728605 0.861532
vt 0.419652 0.455609
vt 0.437314 0.602130
vt 0.427382 0.388558
vt 0.453861 0.673521
vt 0.456270 0.246681
vt 0.457142 0.821698
vt 0.754446 0.118909
vt 0.702806 0.085951
vt 0.422430 0.318143
vt 0.384918 0.373304
vt 0.342509 0.290672
vt 0.295991 0.267774
vt 0.290689 0.423884
vt 0.247464 0.218668
vt 0.257762 0.392905
vt 0.143593 0.309739
vt 0.068763 0.250973
vt 0.114746 0.885744
vt 0.542022 0.502415
vt 0.141073 0.925100
vt 0.586968 0.500412
vt 0.180610 0.920817
vt 0.564754 0.627908
vt 0.774383 0.486773
vt 0.469942 0.715495
vt 0.554410 0.747863
vt 0.482601 0.762342
vt 0.728487 0.485674
vt 0.532447 0.757706
vt 0.648452 0.810613
vt 0.569930 0.832565
vt 0.623348 0.197092
vt 0.642408 0.149788
vt 0.698974 0.263246
vt 0.712978 0.019077
vt 0.958769 0.685911
vt 0.796296 0.631000
vt 0.245134 0.028816
vt 0.869221 0.646398
vt 0.912087 0.544654
vt 0.113162 0.512678
vt 0.324972 0.640010
vt 0.472039 0.284307
vt 0.290251 0.713887
vt 0.283682 0.807084
vt 0.491525 0.191996
vt 0.368447 0.716164
vt 0.625062 0.455440
vt 0.701918 0.468781
vt 0.733347 0.437509
vt 0.811035 0.454275
vt 0.804018 0.409628
vt 0.454880 0.192707
vt 0.449802 0.872476
vt 0.900878 0.416820
vt 0.034151 0.863227
vt 0.047268 0.925424
vt 0.868453 0.477386
vt 0.486787 0.596773
vt 0.119019 0.968066
vt 0.538644 0.548554
vt 0.840894 0.510207
vt 0.172961 0.555832
vt 0.133475 0.275858
vt 0.102626 0.398480
vt 0.696256 0.556686
vt 0.013006 0.831804
vt 0.891992 0.389741
vt 0.916929 0.345244
vt 0.025772 0.789995
vt 0.017835 0.760572
vt 0.915336 0.317598
vt 0.029731 0.658984
vt 0.905919 0.215661
vt 0.863563 0.094049
vt 0.936558 0.518293
vt 0.080904 0.542798
vt 0.729746 0.633275
vt 0.175812 0.434846
vt 0.272983 0.494947
vt 0.738595 0.755837
vt 0.983685 0.548195
vt 0.821531 0.106673
vt 0.387108 0.478120
vt 0.457142 0.574389
vt 0.775046 0.853707
vt 0.390861 0.303252
vt 0.387773 0.446122
vt 0.359172 0.306796
vt 0.357467 0.237747
vt 0.345357 0.422113
vt 0.323961 0.360589
vt 0.767842 0.775341
vt 0.310837 0.476248
vt 0.334514 0.119296
vt 0.246225 0.311930
vt 0.280250 0.352967
vt 0.218998 0.377317
vt 0.226160 0.270034
vt 0.775046 0.625893
vt 0.200503 0.401839
vt 0.736678 0.590356
vt 0.146911 0.411594
vt 0.442163 0.354334
vt 0.441839 0.708940
vt 0.747763 0.890174
vt 0.419710 0.556037
vt 0.347322 0.487307
vt 0.759562 0.822154
vt 0.768045 0.702524
vt 0.252801 0.447736
vt 0.185638 0.132480
vt 0.253777 0.125963
vt 0.782832 0.498991
vt 0.116406 0.049002
vt 0.223272 0.601729
vt 0.117027 0.102965
vt 0.257089 0.651006
vt 0.211167 0.672015
vt 0.091707 0.156536
vt 0.200939 0.727345
vt 0.148966 0.681006
vt 0.251673 0.750451
vt 0.045603 0.179434
vt 0.152430 0.726398
vt 0.205587 0.781830
vt 0.006777 0.196159
vt 0.070807 0.733920
vt 0.204496 0.830336
vt 0.011818 0.251064
vt 0.065630 0.801915
vt 0.171767 0.654740
vt 0.166008 0.102292
vt 0.122250 0.191438
vt 0.206755 0.935915
vt 0.629140 0.524066
vt 0.078863 0.676552
vt 0.104792 0.594069
vt 0.504129 0.669424
vt 0.643915 0.755891
vt 0.621448 0.818470
vt 0.507117 0.820709
vt 0.667385 0.486773
vt 0.696871 0.843775
vt 0.848253 0.457843
vt 0.011999 0.898729
vt 0.085747 0.933288
vt 0.506564 0.554246
vt 0.528206 0.598075
vt 0.676558 0.580064
vt 0.730757 0.809763
vt 0.677349 0.889584
vt 0.369151 0.509510
vt 0.566194 0.880335
vt 0.589582 0.486640
vt 0.625081 0.249236
vt 0.660526 0.380124
vt 0.708259 0.192940
vt 0.736147 0.364894
vt 0.732681 0.167508
vt 0.759483 0.221999
vt 0.776621 0.299522
vt 0.810319 0.230727
vt 0.790096 0.141578
vt 0.579693 0.309098
vt 0.859874 0.185460
vt 0.873070 0.274330
vt 0.938488 0.821977
vt 0.340588 0.992751
vt 0.421204 0.111969
vt 0.932802 0.759284
vt 0.429542 0.024993
vt 0.910451 0.791061
vt 0.966257 0.775843
vt 0.627739 0.007194
vt 0.406508 0.971599
vt 0.875737 0.833913
vt 0.450212 0.080472
vt 0.820992 0.712474
vt 0.324926 0.051383
vt 0.921293 0.648931
vt 0.250569 0.054065
vt 0.161076 0.509146
vt 0.865739 0.553608
vt 0.811221 0.622078
vt 0.244674 0.007314
vt 0.183046 0.052276
vt 0.574911 0.097186
vt 0.438620 0.910067
vt 0.458588 0.152986
vt 0.803734 0.054213
vt 0.955068 0.584544
vt 0.996791 0.611032
vt 0.763807 0.079338
vt 0.616152 0.061835
vt 0.717955 0.923844
vt 0.374813 0.560561
vt 0.481464 0.403236
vt 0.296272 0.595954
vt 0.360205 0.610835
vt 0.502574 0.371257
vt 0.263789 0.627926
vt 0.390207 0.646207
vt 0.504985 0.284582
vt 0.362347 0.769201
vt 0.336921 0.825792
vt 0.547961 0.245631
vt 0.400414 0.821921
vt 0.643297 0.930132
vt 0.309299 0.541085
vt 0.511751 0.460671
vt 0.407692 0.651116
vt 0.458588 0.337949
vt 0.436022 0.728736
vt 0.151843 0.802391
vt 0.872463 0.366831
s 1
f 19/28/1 22/32/2 73/110/3
f 57/76/4 73/110/3 76/113/5
f 22/32/2 23/33/6 73/110/3
f 18/26/7 74/111/8 23/33/6
f 72/107/9 74/111/8 17/24/10
f 73/110/3 75/112/11 76/113/5
f 75/112/11 78/115/12 24/34/13
f 74/111/8 79/117/14 77/114/15
f 74/111/8 89/131/16 79/117/14
f 76/113/5 24/34/13 25/35/17
f 24/34/13 82/120/18 25/35/17
f 78/115/12 28/38/19 82/120/18
f 78/115/12 77/114/15 28/38/19
f 77/114/15 79/117/14 26/36/20
f 79/117/14 90/134/21 26/36/20
f 25/35/17 81/119/22 84/122/23
f 25/35/17 84/122/23 27/37/24
f 77/114/15 26/36/20 28/38/19
f 28/38/19 83/121/25 82/120/18
f 81/119/22 83/121/25 29/39/26
f 83/121/25 85/124/27 10/14/28
f 27/37/24 84/122/23 91/135/29
f 29/39/26 84/122/23 81/119/22
f 83/121/25 10/14/28 29/39/26
f 164/236/30 87/127/31 22/32/2
f 16/23/32 89/132/16 72/109/9
f 89/132/16 70/104/33 79/116/14
f 89/132/16 120/174/34 70/104/33
f 79/117/14 70/103/33 90/134/21
f 69/101/35 63/89/36 86/125/37
f 29/39/26 10/14/28 30/40/38
f 92/136/39 27/37/24 91/135/29
f 80/118/40 27/37/24 92/136/39
f 57/76/4 76/113/5 13/19/41
f 105/155/42 98/145/43 110/161/44
f 98/145/43 109/160/45 110/161/44
f 94/140/46 96/143/47 99/147/48
f 97/144/49 100/148/50 105/155/42
f 95/142/51 97/144/49 105/155/42
f 99/146/48 97/144/49 95/142/51
f 102/151/52 66/94/53 109/160/45
f 98/145/43 102/151/52 109/160/45
f 97/144/49 101/149/54 100/148/50
f 99/146/48 101/149/54 97/144/49
f 100/148/50 101/149/54 165/238/55
f 103/152/56 165/238/55 101/149/54
f 165/238/55 58/79/57 104/154/58
f 103/152/56 32/43/59 31/41/60
f 103/152/56 31/41/60 165/238/55
f 103/152/56 33/45/61 32/43/59
f 103/152/56 11/16/62 33/45/61
f 31/41/60 117/170/63 58/79/57
f 32/43/59 117/170/63 31/41/60
f 68/100/64 110/161/44 14/20/65
f 146/210/66 93/138/67 8/11/68
f 106/156/69 94/140/46 146/210/66
f 106/156/69 107/157/70 96/143/47
f 11/15/62 63/89/36 108/159/71
f 33/44/61 60/84/72 32/42/59
f 33/44/61 108/159/71 60/84/72
f 32/43/59 60/83/72 117/170/63
f 117/170/63 59/80/73 58/79/57
f 102/151/52 65/93/74 66/94/53
f 109/160/45 66/94/53 67/96/75
f 110/161/44 67/96/75 14/20/65
f 59/81/73 35/47/76 116/168/77
f 116/168/77 35/47/76 55/74/78
f 111/162/79 35/48/76 59/82/73
f 36/49/80 38/52/81 111/162/79
f 112/163/82 113/164/83 36/49/80
f 38/52/81 114/165/84 37/50/85
f 36/49/80 40/54/86 38/52/81
f 113/164/83 40/54/86 36/49/80
f 40/54/86 122/177/87 114/165/84
f 115/167/88 121/175/89 113/164/83
f 16/23/32 121/175/89 115/167/88
f 59/81/73 116/168/77 58/78/57
f 118/172/90 59/82/73 117/171/63
f 60/84/72 118/172/90 117/171/63
f 7/10/91 34/46/92 60/84/72
f 63/89/36 119/173/93 108/159/71
f 119/173/93 69/101/35 15/22/94
f 112/163/82 70/104/33 115/167/88
f 120/174/34 16/23/32 115/167/88
f 121/175/89 162/232/95 122/177/87
f 114/166/84 52/71/96 53/72/97
f 37/51/85 53/72/97 54/73/98
f 35/47/76 54/73/98 55/74/78
f 116/168/77 55/74/78 1/2/99
f 41/55/100 123/179/101 132/188/102
f 41/55/100 42/56/103 123/179/101
f 124/180/104 126/182/105 54/73/98
f 123/179/101 43/57/106 124/180/104
f 42/56/103 43/57/106 123/179/101
f 42/56/103 125/181/107 43/57/106
f 21/31/108 127/183/109 42/56/103
f 43/57/106 129/185/110 124/180/104
f 129/185/110 56/75/111 126/182/105
f 128/184/112 130/186/113 129/185/110
f 127/183/109 20/30/114 128/184/112
f 130/186/113 134/190/115 129/185/110
f 131/187/116 71/106/117 133/189/118
f 134/190/115 166/239/119 56/75/111
f 132/188/102 124/180/104 2/3/120
f 147/211/121 42/56/103 41/55/100
f 21/31/108 150/217/122 20/30/114
f 21/31/108 20/30/114 127/183/109
f 71/106/117 68/98/64 14/21/65
f 134/190/115 67/97/75 66/95/53
f 66/95/53 65/92/74 166/239/119
f 166/239/119 1/2/99 56/75/111
f 56/75/111 55/74/78 54/73/98
f 6/7/123 135/191/124 139/197/125
f 135/191/124 138/196/126 137/194/127
f 139/197/125 137/194/127 44/59/128
f 138/196/126 46/62/129 137/194/127
f 141/202/130 45/60/131 138/196/126
f 44/59/128 149/215/132 150/216/122
f 142/204/133 149/215/132 44/59/128
f 45/61/131 145/209/134 138/195/126
f 46/62/129 144/207/135 142/204/133
f 145/208/134 144/207/135 46/62/129
f 47/63/136 68/99/64 149/215/132
f 143/205/137 146/210/66 45/61/131
f 4/5/138 140/199/139 135/192/124
f 4/5/138 148/212/140 140/199/139
f 148/213/140 12/18/141 136/193/142
f 12/18/141 13/19/41 136/193/142
f 80/118/40 143/205/137 141/203/130
f 80/118/40 92/136/39 143/205/137
f 91/135/29 106/156/69 143/205/137
f 8/12/68 61/85/143 144/207/135
f 8/12/68 93/137/67 61/85/143
f 149/215/132 68/99/64 71/105/117
f 44/58/128 150/217/122 21/31/108
f 155/224/144 2/3/120 9/13/145
f 162/234/95 153/221/146 9/13/145
f 152/220/147 153/222/146 162/233/95
f 156/226/148 154/223/149 152/220/147
f 155/224/144 49/66/150 157/227/151
f 156/226/148 51/70/152 154/223/149
f 157/227/151 49/66/150 50/69/153
f 159/229/154 50/68/153 49/67/150
f 50/69/153 147/211/121 160/230/155
f 50/68/153 5/6/156 6/8/123
f 50/68/153 159/229/154 5/6/156
f 158/228/157 161/231/158 159/229/154
f 18/27/7 87/128/31 163/235/159
f 161/231/158 164/237/30 19/29/1
f 161/231/158 57/77/4 4/5/138
f 4/5/138 57/77/4 148/212/140
f 159/229/154 4/5/138 5/6/156
f 5/6/156 4/5/138 135/192/124
f 160/230/155 147/211/121 41/55/100
f 57/76/4 19/28/1 73/110/3
f 22/32/2 87/127/31 23/33/6
f 87/127/31 18/26/7 23/33/6
f 18/26/7 17/24/10 74/111/8
f 72/107/9 89/131/16 74/111/8
f 76/113/5 75/112/11 24/34/13
f 73/110/3 23/33/6 75/112/11
f 75/112/11 23/33/6 78/115/12
f 23/33/6 74/111/8 78/115/12
f 78/115/12 74/111/8 77/114/15
f 13/19/41 76/113/5 25/35/17
f 24/34/13 78/115/12 82/120/18
f 80/118/40 25/35/17 27/37/24
f 25/35/17 82/120/18 81/119/22
f 26/36/20 90/134/21 28/38/19
f 81/119/22 82/120/18 83/121/25
f 83/121/25 28/38/19 85/124/27
f 10/14/28 86/126/37 63/88/36
f 85/123/27 69/101/35 86/125/37
f 103/153/56 99/147/48 30/40/38
f 19/28/1 164/236/30 22/32/2
f 88/130/160 72/108/9 17/25/10
f 88/129/160 16/23/32 72/109/9
f 16/23/32 120/174/34 89/132/16
f 90/133/21 70/104/33 15/22/94
f 90/133/21 15/22/94 69/101/35
f 10/14/28 63/88/36 11/17/62
f 62/87/161 29/39/26 30/40/38
f 84/122/23 29/39/26 62/87/161
f 91/135/29 84/122/23 62/87/161
f 91/135/29 62/87/161 107/157/70
f 80/118/40 13/19/41 25/35/17
f 12/18/141 57/76/4 13/19/41
f 93/139/67 95/142/51 105/155/42
f 94/141/46 99/146/48 95/142/51
f 94/140/46 106/156/69 96/143/47
f 105/155/42 100/148/50 98/145/43
f 96/143/47 107/157/70 30/40/38
f 102/151/52 98/145/43 100/148/50
f 65/93/74 104/154/58 64/90/162
f 99/147/48 103/153/56 101/150/54
f 99/147/48 96/143/47 30/40/38
f 100/148/50 104/154/58 102/151/52
f 100/148/50 165/238/55 104/154/58
f 165/238/55 31/41/60 58/79/57
f 103/153/56 30/40/38 11/17/62
f 33/45/61 11/16/62 108/158/71
f 61/86/143 105/155/42 110/161/44
f 93/139/67 105/155/42 61/86/143
f 146/210/66 94/140/46 93/138/67
f 93/139/67 94/141/46 95/142/51
f 91/135/29 107/157/70 106/156/69
f 107/157/70 62/87/161 30/40/38
f 30/40/38 10/14/28 11/17/62
f 108/159/71 7/10/91 60/84/72
f 64/90/162 58/79/57 1/1/99
f 35/48/76 38/52/81 37/50/85
f 104/154/58 58/79/57 64/90/162
f 110/161/44 109/160/45 67/96/75
f 59/82/73 118/172/90 111/162/79
f 118/172/90 34/46/92 111/162/79
f 15/22/94 112/163/82 34/46/92
f 34/46/92 36/49/80 111/162/79
f 34/46/92 112/163/82 36/49/80
f 43/57/106 128/184/112 129/185/110
f 112/163/82 39/53/163 113/164/83
f 37/51/85 114/166/84 53/72/97
f 38/52/81 40/54/86 114/165/84
f 112/163/82 115/167/88 39/53/163
f 39/53/163 115/167/88 113/164/83
f 114/166/84 122/178/87 52/71/96
f 113/164/83 121/175/89 40/54/86
f 40/54/86 121/175/89 122/177/87
f 16/23/32 88/129/160 121/175/89
f 58/79/57 116/169/77 1/1/99
f 60/84/72 34/46/92 118/172/90
f 7/10/91 15/22/94 34/46/92
f 7/10/91 119/173/93 15/22/94
f 108/159/71 119/173/93 7/10/91
f 119/173/93 63/89/36 69/101/35
f 112/163/82 15/22/94 70/104/33
f 70/104/33 120/174/34 115/167/88
f 121/175/89 88/129/160 152/219/147
f 121/176/89 152/220/147 162/233/95
f 122/178/87 162/234/95 9/13/145
f 122/178/87 9/13/145 52/71/96
f 35/47/76 37/51/85 54/73/98
f 1/2/99 55/74/78 56/75/111
f 132/188/102 123/179/101 124/180/104
f 42/56/103 127/183/109 125/181/107
f 124/180/104 129/185/110 126/182/105
f 53/72/97 124/180/104 54/73/98
f 125/181/107 127/183/109 128/184/112
f 128/184/112 20/30/114 131/187/116
f 129/185/110 134/190/115 56/75/111
f 130/186/113 128/184/112 133/189/118
f 128/184/112 131/187/116 133/189/118
f 130/186/113 133/189/118 134/190/115
f 133/189/118 71/106/117 14/21/65
f 9/13/145 2/3/120 3/4/164
f 3/4/164 2/3/120 124/180/104
f 160/230/155 41/55/100 132/188/102
f 151/218/165 21/31/108 42/56/103
f 131/187/116 20/30/114 71/106/117
f 133/189/118 14/21/65 67/97/75
f 134/190/115 133/189/118 67/97/75
f 166/239/119 134/190/115 66/95/53
f 64/91/162 166/239/119 65/92/74
f 166/239/119 64/91/162 1/2/99
f 54/73/98 126/182/105 56/75/111
f 141/203/130 136/193/142 80/118/40
f 52/71/96 3/4/164 124/180/104
f 135/191/124 140/200/139 138/196/126
f 140/201/139 148/213/140 136/193/142
f 151/218/165 139/198/125 21/31/108
f 139/197/125 135/191/124 137/194/127
f 21/31/108 139/198/125 44/58/128
f 44/59/128 137/194/127 142/204/133
f 137/194/127 46/62/129 142/204/133
f 140/200/139 141/202/130 138/196/126
f 149/215/132 144/207/135 47/63/136
f 138/196/126 145/208/134 46/62/129
f 141/203/130 143/205/137 45/61/131
f 145/209/134 146/210/66 8/11/68
f 145/208/134 8/12/68 144/207/135
f 151/218/165 6/9/123 139/198/125
f 147/211/121 151/218/165 42/56/103
f 157/227/151 2/3/120 155/224/144
f 6/8/123 5/6/156 135/192/124
f 148/213/140 57/76/4 12/18/141
f 136/193/142 13/19/41 80/118/40
f 92/136/39 91/135/29 143/205/137
f 143/205/137 106/156/69 146/210/66
f 144/206/135 110/161/44 47/64/136
f 144/206/135 61/86/143 110/161/44
f 47/64/136 110/161/44 68/100/64
f 20/30/114 150/217/122 71/106/117
f 150/217/122 149/214/132 71/106/117
f 85/124/27 90/134/21 69/102/35
f 9/13/145 153/221/146 155/224/144
f 152/220/147 48/65/166 153/222/146
f 152/220/147 154/223/149 48/65/166
f 158/228/157 49/67/150 51/70/152
f 153/222/146 48/65/166 49/67/150
f 155/225/144 153/222/146 49/67/150
f 154/223/149 51/70/152 48/65/166
f 49/67/150 48/65/166 51/70/152
f 156/226/148 87/128/31 51/70/152
f 87/128/31 164/237/30 51/70/152
f 152/220/147 17/25/10 156/226/148
f 51/70/152 164/237/30 161/231/158
f 158/228/157 51/70/152 161/231/158
f 50/69/153 6/9/123 147/211/121
f 159/229/154 161/231/158 4/5/138
f 52/71/96 9/13/145 3/4/164
f 17/25/10 18/27/7 163/235/159
f 17/25/10 163/235/159 156/226/148
f 156/226/148 163/235/159 87/128/31
f 161/231/158 19/29/1 57/77/4
f 160/230/155 157/227/151 50/69/153
f 132/188/102 2/3/120 160/230/155
f 10/14/28 85/124/27 86/126/37
f 65/93/74 102/151/52 104/154/58
f 35/48/76 111/162/79 38/52/81
f 43/57/106 125/181/107 128/184/112
f 53/72/97 52/71/96 124/180/104
f 141/203/130 140/201/139 136/193/142
f 149/215/132 142/204/133 144/207/135
f 145/209/134 45/61/131 146/210/66
f 151/218/165 147/211/121 6/9/123
f 157/227/151 160/230/155 2/3/120
f 85/124/27 28/38/19 90/134/21
f 158/228/157 159/229/154 49/67/150
f 152/220/147 88/130/160 17/25/10
